<?xml version="1.0" standalone="no"?>
<!DOCTYPE svg PUBLIC "-//W3C//DTD SVG 20010904//EN"
 "http://www.w3.org/TR/2001/REC-SVG-20010904/DTD/svg10.dtd">
<svg version="1.0" xmlns="http://www.w3.org/2000/svg"
 width="260.000000pt" height="260.000000pt" viewBox="0 0 260.000000 260.000000"
 preserveAspectRatio="xMidYMid meet">
<metadata>
Created by potrace 1.11, written by Peter Selinger 2001-2013
</metadata>
<g transform="translate(0.000000,260.000000) scale(0.100000,-0.100000)"
fill="#000000" stroke="none">
<path d="M0 1300 l0 -1300 1300 0 1300 0 0 1300 0 1300 -1300 0 -1300 0 0
-1300z m1493 555 c104 -22 180 -60 237 -121 27 -29 50 -59 51 -66 2 -37 13
-55 72 -123 105 -119 153 -238 163 -405 3 -47 10 -97 15 -111 6 -15 59 -62
129 -115 117 -87 142 -116 122 -136 -7 -7 -139 -12 -354 -14 -189 -1 -426 -8
-528 -13 -284 -16 -796 -14 -910 4 -183 27 -216 55 -141 116 l41 32 0 98 c0
179 32 330 88 414 14 22 37 62 50 90 83 176 301 302 607 350 109 18 276 18
358 0z"/>
</g>
</svg>
