<?xml version="1.0" encoding="utf-8"?>
<!-- Generator: Adobe Illustrator 22.1.0, SVG Export Plug-In . SVG Version: 6.00 Build 0)  -->
<svg version="1.1" id="clock" xmlns="http://www.w3.org/2000/svg" xmlns:xlink="http://www.w3.org/1999/xlink" x="0px" y="0px"
	 viewBox="0 0 88 88" style="enable-background:new 0 0 88 88;" xml:space="preserve">
<path style="opacity:0.5;fill:#FFFFFF;" d="M44,0C19.7,0,0,19.7,0,44s19.7,44,44,44s44-19.7,44-44S68.3,0,44,0z M44,80C24.1,80,8,63.9,8,44S24.1,8,44,8
	s36,16.1,36,36S63.9,80,44,80z"/>
<path style="opacity:0.5;fill:#FFFFFF;" d="M48,42.3V20c0-2.2-1.8-4-4-4s-4,1.8-4,4v24l0,0c0,0.3,0,0.5,0.1,0.8c0,0.1,0.1,0.2,0.1,0.4
	c0,0.1,0.1,0.3,0.1,0.4c0.1,0.1,0.1,0.3,0.2,0.4c0.1,0.1,0.1,0.2,0.2,0.3c0.1,0.2,0.3,0.4,0.5,0.6l11.3,11.3c1.6,1.6,4.1,1.6,5.7,0
	c1.6-1.6,1.6-4.1,0-5.7L48,42.3z"/>
</svg>