<?xml version="1.0" encoding="utf-8"?>
<!-- Generator: Adobe Illustrator 22.1.0, SVG Export Plug-In . SVG Version: 6.00 Build 0)  -->
<svg version="1.1" id="Layer_1" xmlns="http://www.w3.org/2000/svg" xmlns:xlink="http://www.w3.org/1999/xlink" x="0px" y="0px"
	 viewBox="0 0 18 18" style="enable-background:new 0 0 18 18;" xml:space="preserve">
<path style="fill:#FFF;" d="M2.4,10.1c-0.6,0-1.1,0.5-1.1,1.1s0.5,1.1,1.1,1.1H4l-3.7,3.7c-0.4,0.4-0.4,1.2,0,1.6
	C0.6,17.9,0.8,18,1.1,18s0.6-0.1,0.8-0.3l3.8-3.8v1.9c0,0.6,0.5,1.1,1.1,1.1s1-0.5,1-1.1v-5.6H2.4z"/>
<path style="fill:#FFF;" d="M3.6,8.7c0.7,0,1.3-0.6,1.3-1.3V4.9h2.6c0.7,0,1.3-0.6,1.3-1.3S8.2,2.3,7.4,2.3H2.3l0,5.1
	C2.3,8.2,2.9,8.7,3.6,8.7z"/>
<path style="fill:#FFF;" d="M14.5,9.3c-0.7,0-1.3,0.6-1.3,1.3v2.6h-2.6c-0.7,0-1.3,0.6-1.3,1.3s0.6,1.3,1.3,1.3h5.1v-5.1
	C15.7,9.9,15.2,9.3,14.5,9.3z"/>
<path style="fill:#FFF;" d="M16.1,0.3L12.4,4V2.3c0-0.6-0.5-1.1-1.1-1.1s-1.1,0.5-1.1,1.1v5.6h5.6c0.6,0,1.1-0.5,1.1-1.1
	s-0.5-1.1-1.1-1.1H14l3.7-3.7c0.4-0.4,0.4-1.2,0-1.6C17.3-0.1,16.6-0.1,16.1,0.3z"/>
</svg>
