<svg xmlns="http://www.w3.org/2000/svg" width="209.598" height="22.278" viewBox="0 0 209.598 22.278">
  <g id="Group_2" data-name="Group 2" transform="translate(0 -0.722)">
    <g id="linkedin-logo" transform="translate(0 -7.558)">
      <path id="LinkedIn" d="M18.963,20.668v7.011H14.9V21.137c0-1.643-.588-2.765-2.059-2.765a2.224,2.224,0,0,0-2.085,1.487,2.781,2.781,0,0,0-.135.991v6.828H6.554s.055-11.079,0-12.227h4.065v1.733c-.008.013-.019.027-.027.04h.027v-.04a4.037,4.037,0,0,1,3.664-2.02C16.958,15.165,18.963,16.912,18.963,20.668ZM2.3,9.558a2.119,2.119,0,1,0-.054,4.226h.027A2.119,2.119,0,1,0,2.3,9.558ZM.241,27.679H4.306V15.452H.241Z" fill="#fff"/>
    </g>
    <g id="vimeo-logo" transform="translate(45 -25.674)">
      <path id="Vimeo" d="M17.67,28.677q-4.316-.141-5.843,4.843a4.011,4.011,0,0,1,1.533-.325q1.574,0,1.39,1.769a8.049,8.049,0,0,1-1.39,3.121q-1.3,2.051-1.947,2.05-.839,0-1.533-3.167-.234-.932-.834-4.752-.561-3.54-2.97-3.307a6.837,6.837,0,0,0-3.058,1.864Q1.53,32.124,0,33.475l.973,1.256A6.429,6.429,0,0,1,2.6,33.754q1.068,0,2,3.351.832,3.078,1.672,6.15c.83,2.236,1.854,3.354,3.058,3.354q2.921,0,7.144-5.5,4.08-5.262,4.219-8.292Q20.872,28.771,17.67,28.677Z" fill="#fff"/>
    </g>
    <g id="facebook-logo" transform="translate(72.847 0.722)">
      <path id="Path_1" data-name="Path 1" d="M33.668,0,30.779,0c-3.246,0-5.343,2.152-5.343,5.483V8.01h-2.9a.454.454,0,0,0-.454.454v3.663a.454.454,0,0,0,.454.454h2.9v9.242a.454.454,0,0,0,.454.454h3.79a.454.454,0,0,0,.454-.454V12.582h3.4a.454.454,0,0,0,.454-.454V8.465a.455.455,0,0,0-.454-.454h-3.4V5.868c0-1.03.245-1.553,1.587-1.553h1.946a.454.454,0,0,0,.454-.454V.459A.454.454,0,0,0,33.668,0Z" fill="#fff"/>
    </g>
    <g id="twitter-logo-silhouette" transform="translate(136.999 -54.441)">
      <g id="Group_1" data-name="Group 1" transform="translate(0.001 57.441)">
        <path id="Path_2" data-name="Path 2" d="M22.161,59.571a9.078,9.078,0,0,1-2.61.716,4.565,4.565,0,0,0,2-2.513,9.165,9.165,0,0,1-2.889,1.1,4.549,4.549,0,0,0-7.746,4.144,12.906,12.906,0,0,1-9.369-4.75A4.551,4.551,0,0,0,2.952,64.34a4.547,4.547,0,0,1-2.059-.571v.057a4.55,4.55,0,0,0,3.646,4.457,4.6,4.6,0,0,1-1.2.159,4.363,4.363,0,0,1-.856-.084,4.548,4.548,0,0,0,4.246,3.157,9.121,9.121,0,0,1-5.646,1.943A9.662,9.662,0,0,1,0,73.4a12.85,12.85,0,0,0,6.968,2.045A12.844,12.844,0,0,0,19.9,62.508l-.015-.589A9.078,9.078,0,0,0,22.161,59.571Z" transform="translate(-0.001 -57.441)" fill="#fff"/>
      </g>
    </g>
    <g id="google-plus" transform="translate(181.773 -79.387)">
      <path id="Path_3" data-name="Path 3" d="M9.763,93.258H14.11a5.526,5.526,0,1,1-1.5-5.926.6.6,0,0,0,.814,0l1.6-1.5a.6.6,0,0,0,0-.868,8.869,8.869,0,0,0-5.943-2.437,8.9,8.9,0,1,0,8.71,9.4c.007-.059.011-2.043.011-2.043H9.763a.6.6,0,0,0-.6.6v2.186A.6.6,0,0,0,9.763,93.258Z" transform="translate(0 0)" fill="#fff"/>
      <path id="Path_4" data-name="Path 4" d="M329.361,165.866v-2.136a.523.523,0,0,0-.523-.523h-1.8a.523.523,0,0,0-.523.523v2.136h-2.136a.523.523,0,0,0-.523.523v1.8a.523.523,0,0,0,.523.523h2.136v2.136a.523.523,0,0,0,.523.523h1.8a.523.523,0,0,0,.523-.523v-2.136H331.5a.523.523,0,0,0,.523-.523v-1.8a.523.523,0,0,0-.523-.523Z" transform="translate(-304.195 -75.789)" fill="#fff"/>
    </g>
  </g>
</svg>
