<svg xmlns="http://www.w3.org/2000/svg" width="40.637" height="15" viewBox="0 0 40.637 15"><g transform="translate(-934.25 -337)"><text transform="translate(950 349)" font-size="13" font-family="TimesNewRomanPS-BoldMT, Times New Roman" font-weight="700"><tspan x="0" y="0">T</tspan></text><path d="M283.721,432.719a1.041,1.041,0,0,0-1.041,1.041v8.186l2.886-2.3h6.459a1.041,1.041,0,0,0,1.041-1.041v-4.882a1.041,1.041,0,0,0-1.041-1.041h-8.3Z" transform="translate(681.32 -91.68)" fill="none" stroke="#000" stroke-linecap="round" stroke-linejoin="round" stroke-width="1" fill-rule="evenodd"/><g transform="translate(923.308 327.2)"><path d="M104.6,17.2a2.48,2.48,0,0,0,3.471.5,2.336,2.336,0,0,0,.267-.233l1.487-1.487a2.478,2.478,0,0,0-3.5-3.5l-.852.848" transform="translate(-88.971)" fill="none" stroke="#000" stroke-linecap="round" stroke-miterlimit="10" stroke-width="1.5"/><path d="M17.612,93.847a2.48,2.48,0,0,0-3.471-.5,2.338,2.338,0,0,0-.267.233l-1.487,1.487a2.478,2.478,0,0,0,3.5,3.5l.848-.847" transform="translate(0 -77.643)" fill="none" stroke="#000" stroke-linecap="round" stroke-miterlimit="10" stroke-width="1.5"/></g></g></svg>