<svg xmlns="http://www.w3.org/2000/svg" width="12.334" height="12.703" viewBox="0 0 12.334 12.703"><g transform="translate(-682.25 -188.061)"><path d="M104.6,17.732a2.726,2.726,0,0,0,3.814.55,2.568,2.568,0,0,0,.293-.256l1.635-1.635a2.724,2.724,0,0,0-3.852-3.851l-.936.931" transform="translate(582.727 177.225)" fill="none" stroke="#666" stroke-linecap="round" stroke-miterlimit="10" stroke-width="1.5"/><path d="M18.2,93.946a2.726,2.726,0,0,0-3.814-.55,2.568,2.568,0,0,0-.293.256l-1.635,1.635a2.724,2.724,0,0,0,3.852,3.851l.931-.931" transform="translate(671.308 99.922)" fill="none" stroke="#666" stroke-linecap="round" stroke-miterlimit="10" stroke-width="1.5"/></g></svg>