<?xml version="1.0" encoding="utf-8"?>
<!-- Generator: Adobe Illustrator 22.0.1, SVG Export Plug-In . SVG Version: 6.00 Build 0)  -->
<svg version="1.1" id="cp_x5F_blog" xmlns="http://www.w3.org/2000/svg" xmlns:xlink="http://www.w3.org/1999/xlink" x="0px"
	 y="0px" viewBox="0 0 256 256" style="enable-background:new 0 0 256 256;" xml:space="preserve">
<style type="text/css">
	.st0{fill:none;stroke:#444444;stroke-width:23.3927;stroke-linecap:round;stroke-miterlimit:10;}
</style>
<path class="st0" d="M104.6,139.7c19.3,25.9,56,31.1,81.9,11.8c2.2-1.7,4.4-3.5,6.3-5.5l35.1-35.1c22.4-23.2,21.8-60.3-1.4-82.7
	c-22.7-21.9-58.6-21.9-81.3,0l-20.1,20"/>
<path class="st0" d="M151.4,116.3c-19.3-25.9-56-31.1-81.9-11.8c-2.2,1.7-4.4,3.5-6.3,5.5l-35.1,35.1c-22.4,23.2-21.8,60.3,1.4,82.7
	c22.7,21.9,58.6,21.9,81.3,0l20-20"/>
</svg>
