<?xml version="1.0" encoding="utf-8"?>
<!-- Generator: Adobe Illustrator 22.0.1, SVG Export Plug-In . SVG Version: 6.00 Build 0)  -->
<svg version="1.1" id="Layer_1" xmlns="http://www.w3.org/2000/svg" xmlns:xlink="http://www.w3.org/1999/xlink" x="0px" y="0px"
	 viewBox="0 0 256 219" style="enable-background:new 0 0 256 219;" xml:space="preserve">
<style type="text/css">
	.st0{fill:#FFFFFF;}
</style>
<title>cp_folder_closed</title>
<polygon class="st0" points="170,0 146,36 112,36 112,67 81,67 81,90 112,90 112,121 81,121 81,142 112,142 112,173 81,173 81,194 
	29,194 29,163 60,163 60,142 29,142 29,109 60,109 60,88 29,88 29,57 60,57 60,36 0,36 0,219 256,219 256,36 256,0 "/>
</svg>
