<?xml version="1.0" encoding="utf-8"?>
<!-- Generator: Adobe Illustrator 26.4.0, SVG Export Plug-In . SVG Version: 6.00 Build 0)  -->
<svg version="1.1" id="Layer_1" xmlns="http://www.w3.org/2000/svg" xmlns:xlink="http://www.w3.org/1999/xlink" x="0px" y="0px"
	 viewBox="0 0 30 30" style="enable-background:new 0 0 30 30;" xml:space="preserve">
<style type="text/css">
	.st0{fill:#2C79C5;}
</style>
<g transform="translate(0.036)">
	<g transform="translate(-0.036)">
		<path class="st0" d="M30,23.7c0.1,0.5-0.1,0.9-0.4,1.3l-4.2,4.2c-0.2,0.2-0.5,0.4-0.7,0.5c-0.3,0.1-0.6,0.2-0.9,0.3
			c0,0-0.1,0-0.2,0s-0.2,0-0.4,0c-0.7,0-1.3-0.1-2-0.2c-1.1-0.2-2.2-0.6-3.3-1c-1.5-0.7-3-1.5-4.4-2.4c-1.9-1.3-3.7-2.8-5.3-4.4
			c-1.3-1.3-2.6-2.7-3.7-4.2c-0.9-1.2-1.7-2.4-2.4-3.7c-0.5-1-1-2-1.3-3.1c-0.3-0.8-0.5-1.6-0.6-2.4C0,8,0,7.5,0,7
			c0-0.4,0-0.6,0-0.6c0-0.3,0.1-0.6,0.3-0.9c0.1-0.3,0.3-0.5,0.5-0.7l4.2-4.2C5.4,0.2,5.7,0,6.1,0c0.3,0,0.5,0.1,0.7,0.2
			c0.2,0.2,0.4,0.4,0.5,0.6l3.4,6.4C11,7.6,11,8,10.9,8.4c-0.1,0.4-0.3,0.7-0.5,1L8.8,11c-0.1,0.1-0.1,0.1-0.1,0.2
			c0,0.1,0,0.2,0,0.2c0.1,0.5,0.3,1,0.6,1.5c0.3,0.6,0.7,1.3,1.2,1.9c0.7,0.9,1.4,1.7,2.3,2.5c0.8,0.8,1.6,1.6,2.5,2.3
			c0.6,0.4,1.2,0.8,1.9,1.2c0.4,0.2,0.7,0.4,1.1,0.5l0.4,0.1c0.1,0,0.1,0,0.2,0c0.1,0,0.1-0.1,0.2-0.1l1.8-1.8
			c0.4-0.3,0.8-0.5,1.3-0.5c0.3,0,0.6,0.1,0.9,0.2h0l6.1,3.6C29.6,22.9,29.9,23.2,30,23.7z"/>
	</g>
</g>
</svg>
