<?xml version="1.0" encoding="utf-8"?>
<!-- Generator: Adobe Illustrator 24.1.2, SVG Export Plug-In . SVG Version: 6.00 Build 0)  -->
<svg version="1.1" id="Layer_1" xmlns="http://www.w3.org/2000/svg" xmlns:xlink="http://www.w3.org/1999/xlink" x="0px" y="0px"
	 viewBox="0 0 124.4 94.7" enable-background="new 0 0 124.4 94.7" xml:space="preserve">
<g id="Layer_1_1_">
	<g>
		<path fill="#FFFFFF" d="M27.1,1.5h20.7v58c0,26.1-12.5,35.2-32.5,35.2c-4.9,0-11.2-0.8-15.2-2.2l2.3-16.7c2.9,1,6.5,1.6,10.6,1.6
			c8.7,0,14.2-3.9,14.2-18.1V1.5z"/>
		<path fill="#FFFFFF" d="M65.7,72c5.4,2.9,14.2,5.7,23,5.7c9.5,0,14.6-3.9,14.6-10.1c0-5.6-4.4-9-15.4-12.8
			C72.7,49.4,62.6,41,62.6,27.5C62.6,11.8,75.8,0,97.3,0c10.5,0,18,2,23.4,4.6l-4.6,16.6c-3.5-1.8-10.2-4.4-19.1-4.4
			c-9,0-13.3,4.2-13.3,8.8c0,5.9,5,8.4,17,13.1c16.2,6,23.7,14.4,23.7,27.5c0,15.4-11.7,28.4-36.9,28.4c-10.5,0-20.8-2.9-26-5.7
			L65.7,72z"/>
	</g>
</g>
</svg>
