<?xml version="1.0" encoding="utf-8"?>
<!-- Generator: Adobe Illustrator 24.1.2, SVG Export Plug-In . SVG Version: 6.00 Build 0)  -->
<svg version="1.1" id="Слой_1" xmlns="http://www.w3.org/2000/svg" xmlns:xlink="http://www.w3.org/1999/xlink" x="0px" y="0px"
	 viewBox="0 0 70.8 101.7" enable-background="new 0 0 70.8 101.7" xml:space="preserve">
<path fill="#FFFFFF" d="M70.6,35.2C70.6,15.8,54.9,0,35.4,0S0.2,15.8,0.2,35.2c0,0-5,21.5,33,65.2c0,0,1.3,1.3,2.2,1.3
	s2.2-1.3,2.2-1.3C75.6,56.7,70.6,35.2,70.6,35.2z M35.4,56c-11.5,0-20.8-9.3-20.8-20.8c0-11.5,9.3-20.8,20.8-20.8
	s20.8,9.3,20.8,20.8C56.2,46.7,46.9,56,35.4,56z"/>
</svg>
