<?xml version="1.0" encoding="utf-8"?>
<!-- Generator: Adobe Illustrator 24.1.2, SVG Export Plug-In . SVG Version: 6.00 Build 0)  -->
<svg version="1.1" id="Layer_1" xmlns="http://www.w3.org/2000/svg" xmlns:xlink="http://www.w3.org/1999/xlink" x="0px" y="0px"
	 viewBox="0 0 160.5 181.1" enable-background="new 0 0 160.5 181.1" xml:space="preserve">
<g id="Layer_x0020_1">
	<path fill-rule="evenodd" clip-rule="evenodd" fill="#FFFFFF" d="M146.1,161.6L160.3,2.1l0.2-2.1h-2.1H2.1H0l0.2,2.1l14.2,159.6
		l0.1,1.3l1.3,0.4l63.8,17.7h1l64-17.7l1.3-0.4L146.1,161.6L146.1,161.6z M80.4,35.3H127l-1.4,16.3l-46,20.5l0.8,3.7h43.2l-5,57
		l-38.4,10.6l-38.4-10.6l-2.4-27.3h15.8l1.3,13.8l0.1,1.3l1.3,0.3l22,5.8l1,0l21.7-6l1.3-0.4l0.1-1.3l2.2-25.5l0.2-2.1h-2.1H80.4
		H38.1l-1.4-16.4l44.4-19l3.2-1.4L83.5,51h-3.2H34.7l-1.4-15.7h46.9L80.4,35.3L80.4,35.3z"/>
</g>
</svg>
