<?xml version="1.0" encoding="utf-8"?>
<!-- Generator: Adobe Illustrator 24.1.2, SVG Export Plug-In . SVG Version: 6.00 Build 0)  -->
<svg version="1.1" id="cog" xmlns="http://www.w3.org/2000/svg" xmlns:xlink="http://www.w3.org/1999/xlink" x="0px" y="0px"
	 viewBox="0 0 32 32" enable-background="new 0 0 32 32" xml:space="preserve">
<path fill="#FFFFFF" d="M14,0h4l1,6l1.7,0.7L26,3.3L28.7,6l-3.4,5.3L26,13l6,1v4l-6,1l-0.7,1.7l3.4,5.3L26,28.7l-5.3-3.4L19,26l-1,6
	h-4l-1-6l-1.7-0.7L6,28.7L3.3,26l3.4-5.3L6,19l-6-1v-4l6-1l0.7-1.7L3.3,6L6,3.3l5.3,3.4L13,6L14,0z M16,10c-3.3,0-6,2.7-6,6
	s2.7,6,6,6s6-2.7,6-6S19.3,10,16,10"/>
</svg>
