<?xml version="1.0" encoding="utf-8"?>
<!-- Generator: Adobe Illustrator 24.1.2, SVG Export Plug-In . SVG Version: 6.00 Build 0)  -->
<svg version="1.1" id="Layer_1" xmlns="http://www.w3.org/2000/svg" xmlns:xlink="http://www.w3.org/1999/xlink" x="0px" y="0px"
	 viewBox="0 0 238.3 220" enable-background="new 0 0 238.3 220" xml:space="preserve">
<path fill="#FFFFFF" d="M103.8,61.7l-24.3,64.5c3.2,0,9.7,0.1,19.6,0.3c9.9,0.2,17.5,0.3,23,0.3c1.8,0,4.5-0.1,8.2-0.3
	C121.9,102.3,113.1,80.7,103.8,61.7z M0,220l0.3-11.3c2.2-0.7,4.9-1.3,8-1.8s5.9-1,8.2-1.5s4.7-1.2,7.1-2.1c2.4-0.9,4.6-2.3,6.4-4.2
	c1.8-1.9,3.3-4.3,4.4-7.2l33.9-88.2L108.4,0h18.3c0.8,1.3,1.3,2.3,1.6,3l29.4,68.8c3.2,7.4,8.2,19.7,15.2,36.9
	c7,17.1,12.4,30.2,16.3,39.3c1.4,3.2,4.2,10.1,8.3,20.7s7.5,18.6,10.3,24.1c1.9,4.3,3.6,7,5,8.2c1.8,1.4,6,2.8,12.6,4.2
	c6.6,1.4,10.6,2.4,12,2.9c0.6,3.6,0.9,6.3,0.9,8.2c0,0.4,0,1-0.1,1.9s-0.1,1.5-0.1,1.9c-6,0-15.1-0.4-27.2-1.1
	c-12.1-0.8-21.2-1.1-27.4-1.1c-7.3,0-17.5,0.3-30.8,1c-13.3,0.7-21.8,1.1-25.5,1.1c0-4.1,0.2-7.8,0.6-11.2l18.8-4
	c0.1,0,0.7-0.1,1.8-0.4s1.8-0.4,2.2-0.5c0.4-0.1,1.1-0.3,2.1-0.6c1-0.3,1.7-0.6,2.1-0.9c0.4-0.3,1-0.7,1.6-1.1s1.1-1,1.3-1.6
	c0.2-0.6,0.4-1.2,0.4-2c0-1.5-1.5-6.1-4.4-13.8c-3-7.7-6.4-16.2-10.3-25.4c-3.9-9.3-5.9-14-6-14.3l-64.5-0.3
	c-2.5,5.5-6.1,14.9-11,28c-4.8,13.1-7.2,20.9-7.2,23.3c0,2.1,0.7,3.9,2,5.4s3.4,2.6,6.2,3.5c2.8,0.9,5.1,1.5,6.9,1.9
	s4.5,0.8,8.2,1.2c3.6,0.4,5.6,0.6,5.9,0.6c0.1,1.8,0.1,4.6,0.1,8.3c0,0.9-0.1,2.1-0.3,3.9c-5.5,0-13.9-0.5-25-1.4s-19.5-1.4-25-1.4
	c-0.8,0-2,0.2-3.8,0.6s-2.8,0.6-3.1,0.6C19.3,219.3,10.3,220,0,220z"/>
</svg>
