<svg xmlns="http://www.w3.org/2000/svg" width="4.57mm" height="4.44mm" viewBox="0 0 12.94 12.59"><title>set_icon_date</title><path d="M284.27,198.29h10.51a0.83,0.83,0,0,1,.72.91v7.31a0.83,0.83,0,0,1-.72.91H284.27a0.83,0.83,0,0,1-.72-0.91v-7.31A0.83,0.83,0,0,1,284.27,198.29Z" transform="translate(-283.05 -195.33)" style="fill:none;stroke:#818586;stroke-linecap:round;stroke-linejoin:round;fill-rule:evenodd"/><line x1="2.96" y1="2.61" x2="2.96" y2="0.5" style="fill:none;stroke:#818586;stroke-linecap:round;stroke-linejoin:round"/><line x1="6.47" y1="2.61" x2="6.47" y2="0.5" style="fill:none;stroke:#818586;stroke-linecap:round;stroke-linejoin:round"/><line x1="9.98" y1="2.61" x2="9.98" y2="0.5" style="fill:none;stroke:#818586;stroke-linecap:round;stroke-linejoin:round"/><line x1="3.66" y1="5.42" x2="9.54" y2="5.42" style="fill:none;stroke:#818586;stroke-linecap:round;stroke-linejoin:round"/><line x1="3.66" y1="6.82" x2="9.54" y2="6.82" style="fill:none;stroke:#818586;stroke-linecap:round;stroke-linejoin:round"/><line x1="3.66" y1="8.23" x2="9.54" y2="8.23" style="fill:none;stroke:#818586;stroke-linecap:round;stroke-linejoin:round"/><line x1="3.66" y1="9.63" x2="9.54" y2="9.63" style="fill:none;stroke:#818586;stroke-linecap:round;stroke-linejoin:round"/></svg>