<svg xmlns="http://www.w3.org/2000/svg" width="3.98mm" height="3.28mm" viewBox="0 0 11.28 9.3"><title>set_icon_number</title><path d="M294.28,598.13h-9.14A1.14,1.14,0,0,1,284,597" transform="translate(-283.5 -589.33)" style="fill:none;stroke:#818586;stroke-linecap:round;stroke-linejoin:round;fill-rule:evenodd"/><path d="M290.73,593.66l-0.32,1.7h-0.47a0.33,0.33,0,0,1-.31-0.35,0.52,0.52,0,0,1,0-.08l0.25-1.27H289L288.78,595a0.44,0.44,0,0,1-.47.37h-0.45l0.32-1.7H287.7a0.24,0.24,0,0,1-.28-0.28,0.8,0.8,0,0,1,0-.13l0.05-.33h0.79l0.22-1.15h-0.89l0.08-.43a0.37,0.37,0,0,1,.45-0.31h0.46l0.26-1.34a0.43,0.43,0,0,1,.44-0.35h0.47L289.45,591h0.85l0.32-1.69h0.46a0.3,0.3,0,0,1,.33.3,0.22,0.22,0,0,1,0,.06L291.15,591H292l-0.08.43a0.37,0.37,0,0,1-.45.31H291l-0.21,1.15h0.59a0.24,0.24,0,0,1,.27.28,0.85,0.85,0,0,1,0,.13l0,0.33h-0.9Zm-1.6-.74H290l0.21-1.15h-0.85Z" transform="translate(-283.5 -589.33)" style="fill:#818586"/></svg>