<svg xmlns="http://www.w3.org/2000/svg" width="4.75mm" height="4.27mm" viewBox="0 0 13.47 12.12"><title>set_icon_json</title><path d="M285.66,378.76h-0.72a1,1,0,0,0-.82,1.19V382a1.76,1.76,0,0,1-1.34,1.81v0a1.64,1.64,0,0,1,1.34,1.83v2a1,1,0,0,0,.82,1.17h0.72v1h-1.2a1.81,1.81,0,0,1-1.68-2.09V386a1.46,1.46,0,0,0-1.34-1.6v-1.06a1.46,1.46,0,0,0,1.34-1.6v-2.16a1.71,1.71,0,0,1,1.68-1.79h1.2v1Z" transform="translate(-281.44 -377.78)" style="fill:#818586"/><path d="M291.54,378.76h0.57c0.5,0,.65.6,0.65,1.19V382a1.71,1.71,0,0,0,1.07,1.81v0a1.58,1.58,0,0,0-1.07,1.83v2a1,1,0,0,1-.65,1.17h-0.57v1h1c0.64,0,1.34-.63,1.34-2.09V386c0-1,.5-1.6,1.07-1.6v-1.06c-0.57,0-1-.6-1.07-1.6v-2.16a1.57,1.57,0,0,0-1.34-1.79h-1v1Z" transform="translate(-281.44 -377.78)" style="fill:#818586"/></svg>