<svg xmlns="http://www.w3.org/2000/svg" width="4.74mm" height="4.74mm" viewBox="0 0 13.44 13.44"><path d="M6.79,8.15h-.1a3.68,3.68,0,0,1-3.2-1.88" style="fill:none;stroke:#818586;stroke-miterlimit:10;stroke-width:0.9615384615384617px"/><path d="M3.15,5.42A3.62,3.62,0,0,1,3,4.48a3.67,3.67,0,1,1,5.5,3.18" style="fill:none;stroke:#818586;stroke-miterlimit:10;stroke-width:0.9615384615384617px"/><path d="M5.75,8a3.63,3.63,0,0,1,.41-1" style="fill:none;stroke:#818586;stroke-miterlimit:10;stroke-width:0.9615384615384617px"/><path d="M6.72,11.56A3.64,3.64,0,0,1,5.63,9" style="fill:none;stroke:#818586;stroke-miterlimit:10;stroke-width:0.9615384615384617px"/><path d="M10.24,5.41a3.67,3.67,0,0,1-.94,7.21,3.62,3.62,0,0,1-1.87-.51" style="fill:none;stroke:#818586;stroke-miterlimit:10;stroke-width:0.9615384615384617px"/><path d="M7.43,5.79a3.71,3.71,0,0,1,1.87-.5h.08" style="fill:none;stroke:#818586;stroke-miterlimit:10;stroke-width:0.9615384615384617px"/><circle cx="4.14" cy="8.96" r="3.67" style="fill:none;stroke:#818586;stroke-miterlimit:10;stroke-width:0.9615384615384617px"/></svg>