<?xml version="1.0" encoding="utf-8"?>
<!-- Generator: Adobe Illustrator 21.0.2, SVG Export Plug-In . SVG Version: 6.00 Build 0)  -->
<svg version="1.1" id="Laag_1" xmlns="http://www.w3.org/2000/svg" xmlns:xlink="http://www.w3.org/1999/xlink" x="0px" y="0px"
	 viewBox="0 0 200 200" style="enable-background:new 0 0 200 200;" xml:space="preserve">
<style type="text/css">
	.st0{fill:#F18240;}
</style>
<path class="st0" d="M0,0v200h200V0H0z M158.1,137.8c-16.1-0.9-40.8,0.9-78.1,2c-37.3,1.1-48-3-49.6-4.9c-1.7-1.9,6.2-7.1,6.2-7.1
	c-2.2-30.3,7.8-37.9,8.3-39.1c0.5-1.3,4.8-18.6,34.6-25.7c44.6-10.7,55,10.4,55.1,12.7c0.1,1.5-0.9,0.9,4.5,6.7
	c10.9,10.3,12.1,26.6,12.1,32.8s1.1,5.8,6.9,10.3c5.8,4.5,10.7,8.3,10.7,8.3C169.3,134.2,174.2,138.7,158.1,137.8z"/>
</svg>
