<?xml version="1.0" encoding="UTF-8" standalone="no"?><!DOCTYPE svg PUBLIC "-//W3C//DTD SVG 1.1//EN" "http://www.w3.org/Graphics/SVG/1.1/DTD/svg11.dtd"><svg width="100%" height="100%" viewBox="0 0 200 90" version="1.1" xmlns="http://www.w3.org/2000/svg" xmlns:xlink="http://www.w3.org/1999/xlink" xml:space="preserve" xmlns:serif="http://www.serif.com/" style="fill-rule:evenodd;clip-rule:evenodd;stroke-linejoin:round;stroke-miterlimit:1.41421;"><g id="SiteLogo"><rect x="131.156" y="21.091" width="1.795" height="26.989" style="fill:#0d5d67;fill-rule:nonzero;"/><path d="M137.34,20.097c0,0 10.333,-4.392 13.984,-2.776c0,-0.12 4.249,2.035 3.891,4.488c-0.36,1.017 -0.358,2.333 -4.758,2.064c-0.21,0.03 -1.784,-0.104 -1.784,-0.104l5.644,2.468c0,0 3.525,1.972 2.121,4.876c-0.146,0.091 -1.763,2.425 -6.371,-0.028c-4.608,-2.454 -9.035,-4.788 -9.753,-5.206c-0.719,-0.42 -3.472,-2.395 -3.472,-2.395l0.498,-3.387Z" style="fill:#e2178f;fill-rule:nonzero;"/><path d="M136.706,19.784c0,0 7.677,-6.473 8.035,-8.268c0.36,-1.796 0.478,-4.727 -1.316,-6.164c-1.796,-1.436 -4.01,-0.719 -4.608,0.06c-0.599,0.778 -2.094,3.471 -2.094,3.471c0,0 -0.599,-5.146 -1.437,-6.224c-0.838,-1.077 -3.77,-2.275 -4.788,-1.317c-1.016,0.958 -1.734,1.676 -0.718,5.686c1.018,4.009 2.754,10.113 2.754,10.113l4.172,2.643Z" style="fill:#e2178f;fill-rule:nonzero;"/><path d="M132.145,16.95l-6.913,-9.803c0,0 -4.249,-6.763 -7.42,-5.625c-3.172,1.137 -1.735,3.591 -1.197,4.488c0.539,0.898 3.72,4.171 3.72,4.171l-5.396,-2.256c0,0 -1.496,-0.299 -1.975,0.061c-0.478,0.358 -1.436,1.734 -0.837,2.931c0.597,1.198 0.957,2.634 5.326,4.309c4.369,1.675 12.507,4.429 12.507,4.429l2.185,-2.705Z" style="fill:#e2178f;fill-rule:nonzero;"/><path d="M132.807,23.963c0,0 0.529,7.437 0.723,9.346c0.195,1.908 0.062,6.107 2.891,7.971c0,0 1.476,0.959 3.093,0.955c0.78,0.029 1.906,-0.662 1.893,-1.536c-0.012,-0.874 -0.9,-5.15 -0.9,-5.15l-0.158,-0.475l2.989,3.956c0,0 2.379,2.601 3.858,2.124c1.478,-0.478 2.965,-2.274 2.439,-3.451c-0.579,-1.298 -1.664,-2.688 -2.287,-3.323c-0.623,-0.634 -5.926,-5.995 -7.225,-7.022c-1.298,-1.027 -3.414,-3.039 -3.414,-3.039l-3.902,-0.356Z" style="fill:#e2178f;fill-rule:nonzero;"/><path d="M132.892,23.365c0,0 -3.37,8.07 -3.783,8.949c-0.406,0.866 -1.483,2.661 -3.458,3.02c-1.838,0.334 -2.842,0.13 -3.779,-0.711c-0.948,-0.842 -1.723,-2.557 -1.576,-3.672c0.148,-1.123 0.942,-2.519 2.412,-3.254c1.47,-0.738 1.263,-0.738 1.263,-0.738c0,0 -5.038,0.527 -5.981,0.628c-0.948,0.11 -2.311,0.11 -3.052,-0.521c-0.73,-0.632 -1.913,-2.025 -1.251,-4.096c0,-0.104 0.314,-2.202 4.511,-2.202c0,0.104 12.12,-0.635 12.12,-0.635l0.84,1.736l0.956,0.957l0.778,0.539Z" style="fill:#e2178f;fill-rule:nonzero;"/><path d="M129.362,16.782l5.769,-0.001c0,0 2.939,4.831 3.989,5.251c0,0.21 -1.672,2.309 -2.514,3.987c0,0.213 -4.83,-3.145 -6.294,-3.145c0,-0.214 -0.427,-2.943 -0.635,-3.995c-0.207,-1.046 -0.315,-2.097 -0.315,-2.097Z" style="fill:#fff;"/><path d="M131.814,18.818l2.716,-0.107c0,0 1.464,2.407 1.996,2.621c0,0.101 -0.841,1.147 -1.256,1.983c0,0.106 -2.407,-1.568 -3.142,-1.568c0,-0.104 -0.207,-1.465 -0.314,-1.989c-0.101,-0.522 0,-0.94 0,-0.94Z" style="fill:#e2178f;"/><path d="M21.06,56.859l9.97,0c-0.309,-6.415 -5.484,-10.028 -14.893,-10.028c-10.034,0 -15.145,4.053 -15.145,11.84c0,7.788 5.111,11.844 15.145,11.844c8.974,0 14.051,-3.276 14.955,-9.448l-10.062,0c-0.53,2.432 -2.214,3.647 -4.893,3.647c-3.739,0 -5.764,-2.118 -5.764,-6.043c0,-3.927 2.025,-6.079 5.764,-6.079c2.929,0 4.643,1.493 4.923,4.267Z" style="fill:#009ca7;"/><rect x="127.621" y="47.518" width="8.73" height="22.492" style="fill:#009ca7;"/><path d="M171.556,70.01l8.236,0l0,-13.181l9.436,13.181l9.78,0l0,-22.492l-8.439,0l0,12.963l-8.701,-12.963l-10.312,0l0,22.492Z" style="fill:#009ca7;"/><path d="M47.696,62.315l-2.694,-7.854l-2.841,7.854l5.535,0Zm-7.975,-14.623l10.97,0l9.028,22.318l-9.364,0l-0.743,-2.193l-9.49,0l-0.806,2.193l-9.273,0l9.678,-22.318Z" style="fill:#009ca7;fill-rule:nonzero;"/><path d="M61.281,47.692l12.831,0l3.773,13.602l4.082,-13.602l12.64,0l0,22.318l-8.006,0l0,-17.434l-5.319,17.434l-6.738,0l-5.252,-17.434l0,17.434l-8.011,0l0,-22.318Z" style="fill:#009ca7;fill-rule:nonzero;"/><path d="M107.486,52.483l0,4.819l4.735,0c2.597,0 3.736,-0.49 3.736,-2.409c0,-1.916 -1.139,-2.41 -3.736,-2.41l-4.735,0Zm-8.655,-4.791l16.695,0c6.395,0 9.896,2.688 9.896,7.234c0,4.545 -3.501,7.235 -9.896,7.235l-8.04,0l0,7.849l-8.655,0l0,-22.318Z" style="fill:#009ca7;fill-rule:nonzero;"/><path d="M153.962,64.262c3.714,0 5.723,-2.101 5.723,-5.997c0,-3.894 -2.009,-6.029 -5.723,-6.029c-3.708,0 -5.717,2.135 -5.717,6.029c0,3.896 2.009,5.997 5.717,5.997Zm0,-17.742c9.953,0 15.024,4.016 15.024,11.745c0,7.728 -5.071,11.745 -15.024,11.745c-9.953,0 -15.025,-4.017 -15.025,-11.745c0,-7.729 5.072,-11.745 15.025,-11.745Z" style="fill:#009ca7;fill-rule:nonzero;"/><path d="M15.906,78.26l1.527,0l0,4.358l6.589,0l0,-4.358l1.527,0l0,10.813l-1.527,0l0,-5.032l-6.589,0l0,5.032l-1.527,0l0,-10.813Z" style="fill:#009ca7;fill-rule:nonzero;"/><path d="M36.36,87.92c2.756,0 4.328,-1.618 4.328,-4.253c0,-2.651 -1.587,-4.253 -4.342,-4.253c-2.741,0 -4.329,1.602 -4.329,4.253c0,2.651 1.588,4.253 4.343,4.253Zm0,-9.944c3.684,0 5.915,2.247 5.915,5.691c0,3.444 -2.231,5.69 -5.929,5.69c-3.685,0 -5.916,-2.246 -5.916,-5.69c0,-3.444 2.231,-5.691 5.93,-5.691Z" style="fill:#009ca7;fill-rule:nonzero;"/><path d="M47.157,78.26l2.305,0l4.179,9.42l4.282,-9.42l2.277,0l0,10.813l-1.498,0l0.09,-9.69l-4.372,9.69l-1.558,0l-4.298,-9.69l0.09,9.69l-1.497,0l0,-10.813Z" style="fill:#009ca7;fill-rule:nonzero;"/><path d="M65.68,78.26l8.595,0l0,1.378l-7.068,0l0,3.19l6.634,0l0,1.423l-6.634,0l0,3.369l7.173,0l0,1.453l-8.7,0l0,-10.813Z" style="fill:#009ca7;fill-rule:nonzero;"/><path d="M80.444,85.418c0.06,1.707 1.168,2.517 3.4,2.517c1.947,0 2.995,-0.689 2.995,-1.827c0,-0.899 -0.584,-1.304 -1.858,-1.527l-2.68,-0.48c-2.112,-0.375 -3.129,-1.228 -3.129,-2.86c0,-2.037 1.572,-3.265 4.567,-3.265c2.771,0 4.283,1.228 4.313,3.429l-1.528,0c-0.105,-1.393 -1.033,-2.022 -2.906,-2.022c-1.871,0 -2.829,0.629 -2.829,1.723c0,0.884 0.614,1.213 1.916,1.467l2.382,0.465c2.276,0.434 3.354,1.123 3.354,2.935c0,2.097 -1.647,3.384 -4.687,3.384c-3.234,0 -4.882,-1.332 -4.928,-3.939l1.618,0Z" style="fill:#009ca7;fill-rule:nonzero;"/><path d="M101.392,78.26l1.528,0l0,9.36l6.62,0l0,1.453l-8.148,0l0,-10.813Z" style="fill:#009ca7;fill-rule:nonzero;"/><rect x="114.091" y="78.26" width="1.527" height="10.812" style="fill:#009ca7;fill-rule:nonzero;"/><path d="M121.203,78.26l2.305,0l4.179,9.42l4.282,-9.42l2.277,0l0,10.813l-1.498,0l0.09,-9.69l-4.372,9.69l-1.557,0l-4.299,-9.69l0.09,9.69l-1.497,0l0,-10.813Z" style="fill:#009ca7;fill-rule:nonzero;"/><rect x="139.83" y="78.26" width="1.527" height="10.812" style="fill:#009ca7;fill-rule:nonzero;"/><path d="M151.256,89.073l-1.529,0l0,-9.405l-4.102,0l0,-1.408l9.749,0l0,1.408l-4.118,0l0,9.405Z" style="fill:#009ca7;fill-rule:nonzero;"/><path d="M159.537,78.26l8.595,0l0,1.378l-7.068,0l0,3.19l6.634,0l0,1.423l-6.634,0l0,3.369l7.172,0l0,1.453l-8.699,0l0,-10.813Z" style="fill:#009ca7;fill-rule:nonzero;"/><path d="M174.704,79.609l0,8.101l3.729,0c1.273,0 2.187,-0.165 2.861,-0.749c0.718,-0.614 1.212,-1.827 1.212,-3.309c0,-1.483 -0.494,-2.681 -1.212,-3.295c-0.674,-0.584 -1.588,-0.748 -2.861,-0.748l-3.729,0Zm7.593,-0.345c1.168,0.914 1.797,2.411 1.797,4.403c0,1.991 -0.629,3.489 -1.797,4.403c-1.213,0.942 -2.591,1.003 -4.358,1.003l-4.761,0l0,-10.813l4.761,0c1.767,0 3.145,0.06 4.358,1.004Z" style="fill:#009ca7;fill-rule:nonzero;"/></g></svg>