<svg xmlns="http://www.w3.org/2000/svg" viewBox="0 0 162.42 162.42"><defs><style>.cls-1{fill:#4197cb;}.cls-2,.cls-7{fill:#93c4dd;}.cls-3,.cls-5{fill:#fff;}.cls-4,.cls-6{fill:none;}.cls-4,.cls-5,.cls-6,.cls-7{stroke:#414141;stroke-linecap:round;stroke-linejoin:round;stroke-width:3.02px;}.cls-6{stroke-dasharray:5.97;}</style></defs><g id="Layer_2" data-name="Layer 2"><g id="Layer_1-2" data-name="Layer 1"><circle class="cls-1" cx="81.21" cy="81.21" r="81.21"/><rect class="cls-2" x="44.51" y="29.75" width="73.6" height="101.83"/><circle class="cls-1" cx="92.16" cy="74.38" r="34.77"/><circle class="cls-2" cx="92.31" cy="74.35" r="28.42"/><rect class="cls-2" x="55.9" y="20.68" width="50.82" height="14.12"/><rect class="cls-3" x="54.07" y="45.29" width="6.13" height="6.13"/><rect class="cls-3" x="54.07" y="116.57" width="6.13" height="6.13"/><rect class="cls-4" x="54.07" y="116.57" width="6.13" height="6.13"/><line class="cls-4" x1="65.4" y1="117.38" x2="81.47" y2="117.38"/><line class="cls-4" x1="65.4" y1="121.9" x2="81.47" y2="121.9"/><line class="cls-4" x1="88.22" y1="121.9" x2="97.45" y2="121.9"/><line class="cls-4" x1="104.42" y1="121.9" x2="107.7" y2="121.9"/><rect class="cls-4" x="54.07" y="45.29" width="6.13" height="6.13"/><line class="cls-4" x1="65.4" y1="46.1" x2="71.51" y2="46.1"/><path class="cls-5" d="M90.32,75.8h0v-16h0a16,16,0,1,0,16,16Z"/><path class="cls-5" d="M95.55,54.57v16h16A16.07,16.07,0,0,0,95.55,54.57Z"/><path class="cls-4" d="M116.81,60.05a28.53,28.53,0,1,1-4.37-5.61"/><path class="cls-6" d="M92.29,109.76a35.07,35.07,0,0,1-21.56-7.37"/><path class="cls-4" d="M70.73,102.39a35.18,35.18,0,1,1,21.56,7.37"/><path class="cls-7" d="M151.26,133.81h0a7.53,7.53,0,0,1-10.63,0l-18.56-18.42,10.63-10.63,18.56,18.41A7.52,7.52,0,0,1,151.26,133.81Z"/><polygon class="cls-7" points="124.6 112.86 114.18 102.44 119.62 96.73 130.18 107.29 124.6 112.86"/><polyline class="cls-4" points="100.57 25.83 100.57 29.65 62.05 29.65 62.05 25.83"/><rect class="cls-4" x="55.9" y="20.68" width="50.82" height="14.12"/><polyline class="cls-4" points="118.1 50.62 118.1 29.75 106.71 29.75"/><polyline class="cls-4" points="55.9 29.75 44.51 29.75 44.51 131.58 118.1 131.58 118.1 106.36"/><polyline class="cls-4" points="125.43 62.07 125.43 24.88 106.71 24.88"/><line class="cls-4" x1="125.43" y1="102.01" x2="125.43" y2="86.45"/><polyline class="cls-4" points="55.9 24.88 37.18 24.88 37.18 138.77 125.43 138.77 125.43 118.75"/><line class="cls-4" x1="54.07" y1="106.42" x2="63.79" y2="106.42"/><line class="cls-4" x1="54.07" y1="101.85" x2="60.8" y2="101.85"/></g></g></svg>