<?xml version="1.0" encoding="utf-8"?>
<!-- Generator: Adobe Illustrator 23.0.2, SVG Export Plug-In . SVG Version: 6.00 Build 0)  -->
<svg version="1.1" id="Layer_1" xmlns="http://www.w3.org/2000/svg" xmlns:xlink="http://www.w3.org/1999/xlink" x="0px" y="0px"
	 viewBox="0 0 500 500" style="enable-background:new 0 0 500 500;" xml:space="preserve">
<style type="text/css">
	.st0{display:none;}
	.st1{display:inline;}
	.st2{fill:#A9F427;}
	.st3{opacity:0.3;fill:#FFFFFF;enable-background:new    ;}
	.st4{opacity:0.4;fill:#FFFFFF;enable-background:new    ;}
	.st5{fill:url(#SVGID_1_);}
	.st6{fill:#FFFFFF;}
	.st7{fill:#F2CA5A;}
	.st8{fill:url(#SVGID_2_);}
	.st9{fill:#F9437C;}
	.st10{fill:url(#SVGID_3_);}
	.st11{fill:#4C67D8;}
	.st12{fill:url(#SVGID_4_);}
	.st13{fill:#FF94A6;}
</style>
<g id="Laag_1" class="st0">
	<g class="st1">
		<circle class="st2" cx="250" cy="250" r="69.5"/>
		<circle class="st3" cx="250" cy="250" r="51.8"/>
		<circle class="st4" cx="250" cy="250" r="33.9"/>
		
			<linearGradient id="SVGID_1_" gradientUnits="userSpaceOnUse" x1="293.0238" y1="-1245.434" x2="232.5896" y2="-1180.9932" gradientTransform="matrix(1 0 0 -1 0 -950)">
			<stop  offset="0" style="stop-color:#000000;stop-opacity:0"/>
			<stop  offset="1" style="stop-color:#000000;stop-opacity:0.24"/>
		</linearGradient>
		<path class="st5" d="M218.9,269.8l41.8,48.6c0,0,37.5-12.8,56.8-54.3l-14-14.4l0,0l-30-31.3l-9.8-2.3l-9.8-2.6h-15.7l-13.3,17.9"
			/>
		<path class="st6" d="M284.4,257.3c0-6.3-1.2-9.9-3.3-11.9v-7c0-17-13.8-30.8-30.8-30.8s-30.8,13.8-30.8,30.8v7
			c-2.1,2-3.3,5.5-3.3,11.9c0,14.4,6.5,14.4,14.4,14.4v-28.8c-1.6,0-3.1,0-4.5,0.1v-4.5c0-13.4,10.9-24.2,24.2-24.2
			c13.4,0,24.2,10.9,24.2,24.2v4.5c-1.4-0.1-2.9-0.1-4.5-0.1v28.8c1.6,0,3.1,0,4.6-0.1c-1.6,4.9-5.6,11.2-15.5,11.8
			c-1.3-2.5-4.7-4.4-8.7-4.4c-5.1,0-9.3,3-9.3,6.6s4.1,6.6,9.3,6.6c4.1,0,7.5-1.9,8.8-4.5c14.3-0.8,18.9-11.2,20.3-17.4
			C282.4,268.9,284.4,265.3,284.4,257.3z"/>
	</g>
</g>
<g id="Laag_4" class="st0">
	<g class="st1">
		<circle class="st7" cx="250" cy="249.9" r="69.5"/>
		<circle class="st3" cx="250" cy="249.9" r="51.8"/>
		<circle class="st4" cx="250" cy="249.9" r="33.9"/>
		
			<linearGradient id="SVGID_2_" gradientUnits="userSpaceOnUse" x1="282.6789" y1="-1235.2784" x2="242.9289" y2="-1196.5284" gradientTransform="matrix(1 0 0 -1 0 -950)">
			<stop  offset="0" style="stop-color:#000000;stop-opacity:0"/>
			<stop  offset="1" style="stop-color:#000000;stop-opacity:0.5"/>
		</linearGradient>
		<polygon class="st8" points="212.4,273.4 249.8,317.7 258.5,316.7 277,312.3 295.8,301 309.2,285.1 317,267.1 319.2,259.7 
			287.7,225.7 285.3,239.6 290,266.9 280,276.9 		"/>
		<path class="st6" d="M280,222.1h-60c-5.5,0-10,4.5-10,10v34.8c0,5.5,4.5,10,10,10h43.9l12.6,12l1-12h2.5c5.5,0,10-4.5,10-10v-34.8
			C290,226.6,285.6,222.1,280,222.1z M277.9,262.5h-55.8v-4h55.8V262.5z M277.9,251.5h-55.8v-4h55.8V251.5z M277.9,240.5h-55.8v-4
			h55.8V240.5z"/>
	</g>
</g>
<g id="Laag_5" class="st0">
	<g class="st1">
		<circle class="st9" cx="250" cy="250.1" r="69.5"/>
		<circle class="st3" cx="250" cy="250.1" r="51.8"/>
		<circle class="st4" cx="250" cy="250.1" r="33.9"/>
		
			<linearGradient id="SVGID_3_" gradientUnits="userSpaceOnUse" x1="304.8248" y1="-1227.1616" x2="251.0391" y2="-1176.5398" gradientTransform="matrix(1 0 0 -1 0 -950)">
			<stop  offset="0" style="stop-color:#000000;stop-opacity:0"/>
			<stop  offset="1" style="stop-color:#000000;stop-opacity:0.24"/>
		</linearGradient>
		<path class="st10" d="M243,257.2l5.5-12.6l5.6-46.3l65.4,51.8c0,0-9.6,41-31.5,52.1L243,257.2z"/>
		<path class="st6" d="M276.8,271.1l-17.3-17.3c0.4-1.1,0.7-2.4,0.7-3.6c0-4.1-2.5-7.6-6-9.2v-42.6c0-2.2-1.8-4-4-4s-4,1.8-4,4V241
			c-3.5,1.5-6,5.1-6,9.2c0,5.5,4.5,10,10,10c1.3,0,2.5-0.3,3.6-0.7l17.3,17.2c0.8,0.8,1.8,1.2,2.8,1.2s2-0.4,2.8-1.2
			C278.3,275.2,278.3,272.7,276.8,271.1z"/>
	</g>
</g>
<g id="Laag_2" class="st0">
	<g class="st1">
		<circle class="st11" cx="250.2" cy="250" r="69.5"/>
		<circle class="st3" cx="250.2" cy="250" r="51.8"/>
		<circle class="st4" cx="250.2" cy="250" r="33.9"/>
		
			<linearGradient id="SVGID_4_" gradientUnits="userSpaceOnUse" x1="292.8709" y1="-1246.29" x2="232.5376" y2="-1181.9567" gradientTransform="matrix(1 0 0 -1 0 -950)">
			<stop  offset="0" style="stop-color:#000000;stop-opacity:0"/>
			<stop  offset="1" style="stop-color:#000000;stop-opacity:0.24"/>
		</linearGradient>
		<path class="st12" d="M196.9,253.2l64.1,64.2c0,0,36.5-9.8,55.8-51.3l-13-17.4l-30.3-15.9l-7-12.7L253.2,236l-5,14.1l-1.7,6.2
			l-19.4-23.6"/>
		<g>
			<path class="st6" d="M196.9,248.7l30.3-15.9v8c0,0.6-0.1,1.1-0.4,1.6c-0.3,0.5-0.8,0.9-1.4,1.3l-10.6,5.7
				c-0.6,0.4-1.3,0.6-2.1,0.9c-0.7,0.2-1.5,0.5-2.3,0.7c0.8,0.2,1.6,0.4,2.3,0.6s1.4,0.5,2.1,0.8l10.5,5.8c0.6,0.4,1.1,0.8,1.4,1.2
				c0.3,0.5,0.4,1,0.4,1.6v8l-30.2-15.8V248.7z"/>
			<path class="st6" d="M245.4,275.7c-0.3,0.7-0.6,1.3-1.1,1.8c-0.4,0.5-0.9,1-1.5,1.3c-0.5,0.3-1.1,0.6-1.7,0.8
				c-0.6,0.2-1.2,0.3-1.8,0.3h-4.9l21.3-55.8c0.5-1.3,1.3-2.2,2.3-2.9s2.2-1,3.6-1h4.9L245.4,275.7z"/>
			<path class="st6" d="M303.8,253.2L273.6,269v-8c0-0.6,0.2-1.1,0.5-1.6s0.8-0.9,1.4-1.2l10.6-5.8c0.6-0.4,1.3-0.6,2-0.8
				s1.5-0.4,2.3-0.6c-0.8-0.2-1.6-0.4-2.3-0.7c-0.7-0.2-1.4-0.5-2-0.9l-10.6-5.7c-0.6-0.3-1.1-0.8-1.4-1.3s-0.5-1-0.5-1.6v-8
				l30.3,15.9C303.9,248.7,303.9,253.2,303.8,253.2z"/>
		</g>
	</g>
</g>
<g id="Laag_3">
	<g>
		<g>
			<circle class="st13" cx="250" cy="249.9" r="236.9"/>
		</g>
		<g>
			<g>
				<path class="st6" d="M423.5,313.1l-13.6-1.4c1.5-14.4-23.4-47.7-39.5-65.2l10.1-9.2C385.1,242.3,426.1,287.9,423.5,313.1z"/>
			</g>
			<g>
				<circle class="st6" cx="416.7" cy="325" r="17.4"/>
			</g>
			<g>
				<path class="st6" d="M406.5,329.1c0,0,0.2,18.4-3.7,29.4c-1.2,3.2,1.3,6.6,4.7,6.7c10,0.1,25.3-0.4,26.2-4.3
					c0,0-7.5-22.2-6.8-35.4C427.6,312,406.5,329.1,406.5,329.1z"/>
			</g>
			<g>
				<path class="st6" d="M243.8,332.4l-141.1-82.5c-6.2-3.6-6.2-12.6,0-16.2l141.1-82.5c5.5-3.2,12.3-3.2,17.8,0l141.2,82.5
					c6.2,3.6,6.2,12.6,0,16.2l-141.2,82.5C256.1,335.6,249.3,335.6,243.8,332.4z"/>
			</g>
		</g>
	</g>
</g>
</svg>
