<svg xmlns="http://www.w3.org/2000/svg" viewBox="0 0 164.23 164.23"><defs><style>.cls-1{fill:#009878;}.cls-2,.cls-4{fill:#fff;}.cls-2,.cls-6,.cls-7{stroke:#414141;stroke-linecap:round;stroke-linejoin:round;}.cls-2,.cls-6{stroke-width:2.5px;}.cls-3{fill:#6ac6b0;}.cls-5{fill:#414141;}.cls-6,.cls-7{fill:none;}.cls-7{stroke-width:3.02px;}</style></defs><g id="Layer_2" data-name="Layer 2"><g id="Layer_1-2" data-name="Layer 1"><circle class="cls-1" cx="82.12" cy="82.12" r="82.12"/><rect class="cls-2" x="104.42" y="85.22" width="24.48" height="47.71" rx="2.54"/><rect class="cls-3" x="104.42" y="124.71" width="24.48" height="8.08"/><rect class="cls-3" x="104.42" y="84.62" width="24.48" height="8.08"/><circle class="cls-4" cx="117.1" cy="128.92" r="0.33"/><path class="cls-5" d="M117.1,127.34a1.59,1.59,0,1,0,1.58,1.58,1.59,1.59,0,0,0-1.58-1.58Z"/><line class="cls-2" x1="104.42" y1="92.37" x2="128.9" y2="92.37"/><line class="cls-2" x1="128.9" y1="124.71" x2="104.42" y2="124.71"/><line class="cls-2" x1="111.65" y1="88.66" x2="113.36" y2="88.66"/><line class="cls-2" x1="116.66" y1="88.66" x2="122.4" y2="88.66"/><line class="cls-2" x1="123.21" y1="97.59" x2="109.44" y2="115.61"/><line class="cls-2" x1="114.11" y1="115.74" x2="118.54" y2="109.97"/><line class="cls-2" x1="120.58" y1="106.87" x2="122.59" y2="104.32"/><rect class="cls-6" x="104.42" y="85.22" width="24.48" height="47.71" rx="2.54"/><rect class="cls-3" x="21.24" y="45.28" width="72.82" height="41.4"/><path class="cls-5" d="M92,46.2a.91.91,0,0,1,.91.91V94.69a.91.91,0,0,1-.91.91H23.37a.92.92,0,0,1-.91-.91V47.11a.92.92,0,0,1,.91-.91H92m0-3H23.37a3.93,3.93,0,0,0-3.92,3.93V94.69a3.93,3.93,0,0,0,3.92,3.93H92A3.94,3.94,0,0,0,96,94.69V47.11A3.94,3.94,0,0,0,92,43.18Z"/><rect class="cls-4" x="43.53" y="60.35" width="3.67" height="21.99"/><rect class="cls-4" x="50.86" y="63.06" width="3.67" height="19.27"/><rect class="cls-4" x="58.19" y="54.91" width="3.67" height="27.43"/><rect class="cls-4" x="65.52" y="57.63" width="3.67" height="24.71"/><rect class="cls-4" x="72.84" y="50.87" width="3.67" height="31.47"/><line class="cls-7" x1="21.24" y1="86.68" x2="94.06" y2="86.68"/><path class="cls-5" d="M57.7,90.33A1.71,1.71,0,1,0,59.41,92a1.71,1.71,0,0,0-1.71-1.71Z"/><line class="cls-7" x1="56.31" y1="49.76" x2="59.1" y2="49.76"/><line class="cls-7" x1="48.12" y1="98.62" x2="45.82" y2="109.34"/><line class="cls-7" x1="67.29" y1="98.62" x2="69.58" y2="109.34"/><line class="cls-7" x1="77.4" y1="109.34" x2="38.01" y2="109.34"/><line class="cls-7" x1="26.35" y1="52.12" x2="32.65" y2="52.12"/><line class="cls-7" x1="26.35" y1="59.35" x2="29.5" y2="59.35"/><line class="cls-7" x1="37.55" y1="55.73" x2="39.03" y2="55.73"/><path class="cls-7" d="M141,79.62c0,.23,0,.45,0,.68"/><path class="cls-7" d="M139.82,68.14c.29,1.43.54,2.89.73,4.36"/><path class="cls-7" d="M80.69,19.94a60.38,60.38,0,0,1,56,37.71"/><path class="cls-7" d="M27.9,109.58c-.42-.75-.82-1.51-1.2-2.27"/><path class="cls-7" d="M80.69,140.66a60.23,60.23,0,0,1-48-23.82"/><polyline class="cls-7" points="86.54 24.79 80.69 19.94 86.94 16.28"/><polyline class="cls-7" points="76.36 145.19 82.22 140.35 75.96 136.68"/><polyline class="cls-7" points="28.57 80.78 46.95 70.65 50.37 74.39 64.88 65.54 69.57 70.91 90.14 53.6"/><polyline class="cls-7" points="84.24 54.88 90.14 53.6 88.21 59.17"/></g></g></svg>