<svg xmlns="http://www.w3.org/2000/svg" viewBox="0 0 164.23 164.23"><defs><style>.cls-1{fill:#58c3b8;}.cls-2,.cls-4{fill:#a0d8d2;}.cls-2,.cls-3,.cls-6{stroke:#414141;stroke-linecap:round;stroke-linejoin:round;}.cls-2,.cls-3{stroke-width:3.02px;}.cls-3{fill:#fff;}.cls-5{fill:#414141;}.cls-6{fill:none;stroke-width:2.32px;}</style></defs><g id="Layer_2" data-name="Layer 2"><g id="Layer_1-2" data-name="Layer 1"><circle class="cls-1" cx="82.12" cy="82.12" r="82.12"/><rect class="cls-2" x="37.34" y="28.28" width="54.64" height="102.09" rx="6.83"/><rect class="cls-3" x="42.19" y="36.63" width="44.92" height="18.74" rx="2.51"/><path class="cls-4" d="M64.65,98.14A14.88,14.88,0,0,1,54,93.74a15,15,0,1,1,10.61,4.4Z"/><path class="cls-5" d="M64.65,69.62a13.51,13.51,0,1,1-9.54,4,13.42,13.42,0,0,1,9.54-4m0-3a16.52,16.52,0,1,0,11.69,4.84,16.47,16.47,0,0,0-11.69-4.84Z"/><line class="cls-6" x1="52.97" y1="71.45" x2="76.34" y2="94.81"/><line class="cls-6" x1="91.36" y1="108.98" x2="37.95" y2="108.98"/><polyline class="cls-6" points="82.43 44.19 82.43 40.77 77.11 40.77 77.11 44.19"/><polyline class="cls-6" points="77.11 47.81 77.11 51.23 82.43 51.23 82.43 47.81"/><polyline class="cls-6" points="73.69 44.19 73.69 40.77 68.36 40.77 68.36 44.19"/><polyline class="cls-6" points="68.36 47.81 68.36 51.23 73.69 51.23 73.69 47.81"/><polyline class="cls-6" points="62.4 44.19 62.4 40.77 57.08 40.77 57.08 44.19"/><polyline class="cls-6" points="57.08 47.81 57.08 51.23 62.4 51.23 62.4 47.81"/><line class="cls-6" x1="65.3" y1="51.23" x2="65.3" y2="51.23"/><rect class="cls-6" x="42.19" y="60.81" width="6.79" height="3.86"/><rect class="cls-6" x="80.33" y="60.81" width="6.79" height="3.86"/><path class="cls-3" d="M52.07,119.25a3.53,3.53,0,1,1-3.53-3.52A3.53,3.53,0,0,1,52.07,119.25Z"/><path class="cls-3" d="M68.18,119.25a3.53,3.53,0,1,1-3.53-3.52A3.53,3.53,0,0,1,68.18,119.25Z"/><path class="cls-3" d="M84.29,119.25a3.53,3.53,0,1,1-3.52-3.52A3.52,3.52,0,0,1,84.29,119.25Z"/><rect class="cls-2" x="106.98" y="37.03" width="5.76" height="72.21"/><line class="cls-6" x1="104.75" y1="48.55" x2="114.98" y2="48.55"/><line class="cls-6" x1="109.87" y1="37.03" x2="109.87" y2="28.28"/><polyline class="cls-6" points="109.87 109.23 109.87 140.35 64.65 140.35 64.65 122.78"/><rect class="cls-2" x="122.19" y="37.03" width="5.76" height="72.21"/><line class="cls-6" x1="119.96" y1="48.55" x2="130.19" y2="48.55"/><line class="cls-6" x1="125.08" y1="37.03" x2="125.08" y2="28.28"/><polyline class="cls-6" points="125.08 108.98 125.08 119.25 84.3 119.25"/><line class="cls-6" x1="46.44" y1="75.58" x2="49.39" y2="76.8"/><line class="cls-6" x1="79.92" y1="89.45" x2="82.86" y2="90.67"/><line class="cls-6" x1="72.2" y1="64.92" x2="70.98" y2="67.86"/><line class="cls-6" x1="58.33" y1="98.39" x2="57.11" y2="101.34"/><line class="cls-6" x1="50.72" y1="69.19" x2="52.97" y2="71.45"/><line class="cls-6" x1="76.34" y1="94.81" x2="78.59" y2="97.06"/><line class="cls-6" x1="78.59" y1="69.19" x2="76.34" y2="71.45"/><line class="cls-6" x1="52.97" y1="94.81" x2="50.72" y2="97.06"/><line class="cls-6" x1="57.11" y1="64.92" x2="58.33" y2="67.86"/><line class="cls-6" x1="70.98" y1="98.39" x2="72.2" y2="101.34"/><line class="cls-6" x1="82.86" y1="75.58" x2="79.92" y2="76.8"/><line class="cls-6" x1="49.39" y1="89.45" x2="46.44" y2="90.67"/><line class="cls-6" x1="64.65" y1="63.42" x2="64.65" y2="66.61"/><line class="cls-6" x1="64.65" y1="99.65" x2="64.65" y2="102.84"/><line class="cls-6" x1="84.36" y1="83.13" x2="81.17" y2="83.13"/><line class="cls-6" x1="48.13" y1="83.13" x2="44.94" y2="83.13"/></g></g></svg>