<?xml version="1.0" encoding="utf-8"?>
<!-- Generator: Adobe Illustrator 24.2.0, SVG Export Plug-In . SVG Version: 6.00 Build 0)  -->
<svg version="1.1" id="Layer_1" xmlns="http://www.w3.org/2000/svg" xmlns:xlink="http://www.w3.org/1999/xlink" x="0px" y="0px"
	 viewBox="0 0 160 160" style="enable-background:new 0 0 160 160;" xml:space="preserve">
<style type="text/css">
	.st0{fill:#9164CC;}
	.st1{fill:#B7B6B6;}
	.st2{fill:#F8F7F9;}
	.st3{fill:none;stroke:#404040;stroke-width:2.75;stroke-linecap:round;stroke-linejoin:round;}
	.st4{fill:#404040;}
	.st5{fill:#BBA4E0;}
</style>
<circle class="st0" cx="80" cy="80" r="75"/>
<path class="st1" d="M109.4,30.6c0,0,0.8,6,0.4,6s5.2-5.1,5.2-5.1L109.4,30.6z"/>
<polygon class="st2" points="94.8,28.3 123.3,32.8 133,14.4 "/>
<polygon class="st3" points="123.3,32.8 94.8,28.3 133,14.4 "/>
<polyline class="st3" points="115.7,31.6 109.4,36.6 109.4,30.6 133,14.4 "/>
<line class="st3" x1="99.7" y1="35.7" x2="101.8" y2="34.2"/>
<polygon class="st0" points="33,101.4 33,86.6 78.6,56.9 124.1,86.6 124.1,101.4 78.6,134.6 "/>
<path class="st4" d="M78.6,58.5l44.1,28.8v13.4l-44.1,32.2l-44.2-32.2V87.3L78.6,58.5 M78.6,55.2L31.7,85.8v16.3l46.9,34.2
	l46.9-34.2V85.8L78.6,55.2L78.6,55.2z"/>
<polygon class="st0" points="33,85.1 33,70.3 78.6,40.6 124.1,70.3 124.1,85.1 78.6,116.8 "/>
<path class="st4" d="M78.6,42.2L122.7,71v13.3l-44.1,30.8L34.4,84.4V71.1L78.6,42.2 M78.6,39L31.7,69.6v16.3l46.9,32.7l46.9-32.8
	V69.6L78.6,39z"/>
<polygon class="st0" points="33,68.8 33,54.1 78.6,28.5 124.1,54.1 124.1,68.8 78.6,97.8 "/>
<path class="st4" d="M78.6,30.1l44.1,24.8V68L78.6,96.2L34.4,68.1V54.9L78.6,30.1 M78.6,26.9L31.7,53.3v16.3l46.9,29.9l46.9-29.9
	V53.3L78.6,26.9z"/>
<polygon class="st0" points="34.4,53.3 78.6,28.5 122.7,53.3 78.6,79.1 "/>
<path class="st4" d="M78.6,30.1l41.3,23.3L78.6,77.5L37.2,53.3L78.6,30.1 M78.6,26.9L31.7,53.3l46.9,27.4l46.9-27.4L78.6,26.9z"/>
<line class="st3" x1="111.9" y1="47.6" x2="68.1" y2="73"/>
<line class="st3" x1="102.3" y1="42.3" x2="58.9" y2="67.3"/>
<line class="st3" x1="93.6" y1="37.2" x2="50" y2="62.4"/>
<line class="st3" x1="85.9" y1="33" x2="41.9" y2="57.6"/>
<line class="st3" x1="84.7" y1="84.1" x2="102.2" y2="74.1"/>
<line class="st3" x1="108.3" y1="69.9" x2="119.8" y2="63.2"/>
<line class="st3" x1="85.2" y1="103" x2="102.2" y2="92.2"/>
<line class="st3" x1="108.1" y1="87.7" x2="119.3" y2="80.5"/>
<line class="st3" x1="85.5" y1="120.5" x2="102.3" y2="109.2"/>
<line class="st3" x1="108" y1="104.6" x2="118.9" y2="97"/>
<line class="st3" x1="73.2" y1="84.1" x2="55.6" y2="74.1"/>
<line class="st3" x1="49.6" y1="69.9" x2="38.1" y2="63.2"/>
<line class="st3" x1="72.7" y1="103" x2="55.6" y2="92.2"/>
<line class="st3" x1="49.7" y1="87.7" x2="38.6" y2="80.5"/>
<line class="st3" x1="72.3" y1="120.5" x2="55.6" y2="109.2"/>
<line class="st3" x1="49.9" y1="104.6" x2="38.9" y2="97"/>
<line class="st3" x1="78.6" y1="78.7" x2="78.6" y2="134.5"/>
<polygon class="st5" points="33,101.4 33,86.6 78.6,56.9 124.1,86.6 124.1,101.4 78.6,134.6 "/>
<path class="st4" d="M78.6,58.5l44.1,28.8v13.4l-44.1,32.2l-44.2-32.2V87.3L78.6,58.5 M78.6,55.2L31.7,85.8v16.3l46.9,34.2
	l46.9-34.2V85.8L78.6,55.2L78.6,55.2z"/>
<polygon class="st5" points="33,85.1 33,70.3 78.6,40.6 124.1,70.3 124.1,85.1 78.6,116.8 "/>
<path class="st4" d="M78.6,42.2L122.7,71v13.3l-44.1,30.8L34.4,84.4V71.1L78.6,42.2 M78.6,39L31.7,69.6v16.3l46.9,32.7l46.9-32.8
	V69.6L78.6,39z"/>
<polygon class="st5" points="33,68.8 33,54.1 78.6,28.5 124.1,54.1 124.1,68.8 78.6,97.8 "/>
<path class="st4" d="M78.6,30.1l44.1,24.8V68L78.6,96.2L34.4,68.1V54.9L78.6,30.1 M78.6,26.9L31.7,53.3v16.3l46.9,29.9l46.9-29.9
	V53.3L78.6,26.9z"/>
<polygon class="st5" points="34.4,53.3 78.6,28.5 122.7,53.3 78.6,79.1 "/>
<path class="st4" d="M78.6,30.1l41.3,23.3L78.6,77.5L37.2,53.3L78.6,30.1 M78.6,26.9L31.7,53.3l46.9,27.4l46.9-27.4L78.6,26.9z"/>
<line class="st3" x1="111.9" y1="47.6" x2="68.1" y2="73"/>
<line class="st3" x1="102.3" y1="42.3" x2="58.9" y2="67.3"/>
<line class="st3" x1="93.6" y1="37.2" x2="50" y2="62.4"/>
<line class="st3" x1="85.9" y1="33" x2="41.9" y2="57.6"/>
<line class="st3" x1="84.7" y1="84.1" x2="102.2" y2="74.1"/>
<line class="st3" x1="108.3" y1="69.9" x2="119.8" y2="63.2"/>
<line class="st3" x1="85.2" y1="103" x2="102.2" y2="92.2"/>
<line class="st3" x1="108.1" y1="87.7" x2="119.3" y2="80.5"/>
<line class="st3" x1="85.5" y1="120.5" x2="102.3" y2="109.2"/>
<line class="st3" x1="108" y1="104.6" x2="118.9" y2="97"/>
<line class="st3" x1="73.2" y1="84.1" x2="55.6" y2="74.1"/>
<line class="st3" x1="49.6" y1="69.9" x2="38.1" y2="63.2"/>
<line class="st3" x1="72.7" y1="103" x2="55.6" y2="92.2"/>
<line class="st3" x1="49.7" y1="87.7" x2="38.6" y2="80.5"/>
<line class="st3" x1="72.3" y1="120.5" x2="55.6" y2="109.2"/>
<line class="st3" x1="49.9" y1="104.6" x2="38.9" y2="97"/>
<line class="st3" x1="78.6" y1="78.7" x2="78.6" y2="134.5"/>
</svg>
