<?xml version="1.0" encoding="utf-8"?>
<!-- Generator: Adobe Illustrator 23.0.2, SVG Export Plug-In . SVG Version: 6.00 Build 0)  -->
<svg version="1.1" id="Layer_1" xmlns="http://www.w3.org/2000/svg" xmlns:xlink="http://www.w3.org/1999/xlink" x="0px" y="0px"
	 viewBox="0 0 148 148" style="enable-background:new 0 0 148 148;" xml:space="preserve">
<style type="text/css">
	.st0{fill:#CB8BDA;}
	.st1{fill:#FFFFFF;}
	.st2{display:none;}
	.st3{display:inline;}
	.st4{fill:#F2CA5A;}
	.st5{opacity:0.3;fill:#FFFFFF;enable-background:new    ;}
	.st6{opacity:0.4;fill:#FFFFFF;enable-background:new    ;}
	.st7{fill:url(#SVGID_1_);}
	.st8{fill:#F9437C;}
	.st9{fill:url(#SVGID_2_);}
	.st10{fill:#4C67D8;}
	.st11{fill:url(#SVGID_3_);}
	.st12{fill:#FF94A6;}
	.st13{fill:url(#SVGID_4_);}
	.st14{fill:none;stroke:#FFFFFF;stroke-width:4;stroke-miterlimit:10;}
</style>
<g id="Laag_1">
	<g>
		<circle class="st0" cx="74" cy="74" r="69.5"/>
		<path class="st1" d="M119.9,83.6c0-10.3-4.4-16-9.7-16v-4.6c0-18.9-14.9-34.9-33.9-35.3C56.9,27.2,41,42.9,41,62.3v7.9
			c-2.4,2.2-3.7,6.2-3.7,13.4c0,12.8,4.5,15.5,10.8,16c2.9,0.3,5.4-2,5.4-4.9V67.4c-1.8,0-3.5,0-5.1,0.1v-5.1
			c0-15.1,12.3-27.2,27.2-27.2c15.1,0,27.2,12.3,27.2,27.2v5.1c-1.6-0.1-3.3-0.1-5.1-0.1v27.4c0,2.8,2.3,5,5.1,4.9l0.1,0
			c-1.8,5.5-6.3,12.6-17.4,13.3c-1.5-2.8-5.3-4.9-9.8-4.9c-5.7,0-10.5,3.4-10.5,7.4s4.6,7.4,10.5,7.4c4.6,0,8.4-2.1,9.9-5.1
			c16.1-0.9,21.3-12.6,22.8-19.6C113.4,98.2,119.9,92.6,119.9,83.6z"/>
		<path class="st1" d="M122.3,82.2c0,10.4-4.8,18.9-14.1,18.9h-6.5c-2.2,0-3.9-1.7-3.9-3.9V67.2c0-2.2,1.7-3.9,3.9-3.9h6.5
			C117.5,63.3,122.3,71.8,122.3,82.2z"/>
		<path class="st1" d="M29.3,82.2c0,10.4,4.8,18.9,14.1,18.9h6.5c2.2,0,3.9-1.7,3.9-3.9V67.2c0-2.2-1.7-3.9-3.9-3.9h-6.5
			C34,63.3,29.3,71.8,29.3,82.2z"/>
	</g>
</g>
<g id="Laag_4" class="st2">
	<g class="st3">
		<circle class="st4" cx="74" cy="73.9" r="69.5"/>
		<circle class="st5" cx="74" cy="73.9" r="51.8"/>
		<circle class="st6" cx="74" cy="73.9" r="33.9"/>
		
			<linearGradient id="SVGID_1_" gradientUnits="userSpaceOnUse" x1="106.6789" y1="729.2785" x2="66.9289" y2="690.5285" gradientTransform="matrix(1 0 0 1 0 -620)">
			<stop  offset="0" style="stop-color:#000000;stop-opacity:0"/>
			<stop  offset="1" style="stop-color:#000000;stop-opacity:0.5"/>
		</linearGradient>
		<polygon class="st7" points="36.4,97.4 73.8,141.7 82.5,140.7 101,136.3 119.8,125 133.2,109.1 141,91.1 143.2,83.7 111.7,49.7 
			109.3,63.6 114,90.9 104,100.9 		"/>
		<path class="st1" d="M104,46.1H44c-5.5,0-10,4.5-10,10v34.8c0,5.5,4.5,10,10,10h43.9l12.6,12l1-12h2.5c5.5,0,10-4.5,10-10V56.1
			C114,50.6,109.6,46.1,104,46.1z M101.9,86.5H46.1v-4h55.8C101.9,82.5,101.9,86.5,101.9,86.5z M101.9,75.5H46.1v-4h55.8
			C101.9,71.5,101.9,75.5,101.9,75.5z M101.9,64.5H46.1v-4h55.8C101.9,60.5,101.9,64.5,101.9,64.5z"/>
	</g>
</g>
<g id="Laag_5" class="st2">
	<g class="st3">
		<circle class="st8" cx="74" cy="74.1" r="69.5"/>
		<circle class="st5" cx="74" cy="74.1" r="51.8"/>
		<circle class="st6" cx="74" cy="74.1" r="33.9"/>
		
			<linearGradient id="SVGID_2_" gradientUnits="userSpaceOnUse" x1="128.8248" y1="721.1616" x2="75.0391" y2="670.5398" gradientTransform="matrix(1 0 0 1 0 -620)">
			<stop  offset="0" style="stop-color:#000000;stop-opacity:0"/>
			<stop  offset="1" style="stop-color:#000000;stop-opacity:0.24"/>
		</linearGradient>
		<path class="st9" d="M67,81.2l5.5-12.6l5.6-46.3l65.4,51.8c0,0-9.6,41-31.5,52.1L67,81.2z"/>
		<path class="st1" d="M100.8,95.1L83.5,77.8c0.4-1.1,0.7-2.4,0.7-3.6c0-4.1-2.5-7.6-6-9.2V22.4c0-2.2-1.8-4-4-4s-4,1.8-4,4V65
			c-3.5,1.5-6,5.1-6,9.2c0,5.5,4.5,10,10,10c1.3,0,2.5-0.3,3.6-0.7l17.3,17.2c0.8,0.8,1.8,1.2,2.8,1.2s2-0.4,2.8-1.2
			C102.3,99.2,102.3,96.7,100.8,95.1z"/>
	</g>
</g>
<g id="Laag_2" class="st2">
	<g class="st3">
		<circle class="st10" cx="74.2" cy="74" r="69.5"/>
		<circle class="st5" cx="74.2" cy="74" r="51.8"/>
		<circle class="st6" cx="74.2" cy="74" r="33.9"/>
		
			<linearGradient id="SVGID_3_" gradientUnits="userSpaceOnUse" x1="116.8709" y1="740.29" x2="56.5376" y2="675.9567" gradientTransform="matrix(1 0 0 1 0 -620)">
			<stop  offset="0" style="stop-color:#000000;stop-opacity:0"/>
			<stop  offset="1" style="stop-color:#000000;stop-opacity:0.24"/>
		</linearGradient>
		<path class="st11" d="M20.9,77.2L85,141.4c0,0,36.5-9.8,55.8-51.3l-13-17.4L97.5,56.8l-7-12.7L77.2,60l-5,14.1l-1.7,6.2L51.1,56.7
			"/>
		<g>
			<path class="st1" d="M20.9,72.7l30.3-15.9v8c0,0.6-0.1,1.1-0.4,1.6s-0.8,0.9-1.4,1.3l-10.6,5.7c-0.6,0.4-1.3,0.6-2.1,0.9
				c-0.7,0.2-1.5,0.5-2.3,0.7c0.8,0.2,1.6,0.4,2.3,0.6s1.4,0.5,2.1,0.8l10.5,5.8c0.6,0.4,1.1,0.8,1.4,1.2c0.3,0.5,0.4,1,0.4,1.6v8
				L20.9,77.2V72.7z"/>
			<path class="st1" d="M69.4,99.7c-0.3,0.7-0.6,1.3-1.1,1.8c-0.4,0.5-0.9,1-1.5,1.3c-0.5,0.3-1.1,0.6-1.7,0.8
				c-0.6,0.2-1.2,0.3-1.8,0.3h-4.9l21.3-55.8c0.5-1.3,1.3-2.2,2.3-2.9s2.2-1,3.6-1h4.9L69.4,99.7z"/>
			<path class="st1" d="M127.8,77.2L97.6,93v-8c0-0.6,0.2-1.1,0.5-1.6s0.8-0.9,1.4-1.2l10.6-5.8c0.6-0.4,1.3-0.6,2-0.8
				c0.7-0.2,1.5-0.4,2.3-0.6c-0.8-0.2-1.6-0.4-2.3-0.7c-0.7-0.2-1.4-0.5-2-0.9l-10.6-5.7c-0.6-0.3-1.1-0.8-1.4-1.3s-0.5-1-0.5-1.6
				v-8l30.3,15.9C127.9,72.7,127.9,77.2,127.8,77.2z"/>
		</g>
	</g>
</g>
<g id="Laag_3" class="st2">
	<g class="st3">
		<circle class="st12" cx="74" cy="73.9" r="69.5"/>
		<circle class="st5" cx="74" cy="73.9" r="51.8"/>
		<circle class="st6" cx="74" cy="73.9" r="33.9"/>
		
			<linearGradient id="SVGID_4_" gradientUnits="userSpaceOnUse" x1="114.2168" y1="-190.611" x2="51.8816" y2="-120.325" gradientTransform="matrix(1 0 0 -1 0 -80.5666)">
			<stop  offset="0" style="stop-color:#000000;stop-opacity:0"/>
			<stop  offset="1" style="stop-color:#000000;stop-opacity:0.5"/>
		</linearGradient>
		<polygon class="st13" points="26.7,65.6 90.4,131.4 99.2,137 99.2,137 118,125.7 131.4,109.8 139.2,91.8 138.4,84.4 122.9,65.6 
			55.8,61.7 68.1,74 76,82 		"/>
		<g>
			<path class="st14" d="M110.8,65.6c0,0,12.8,14,12.1,20.7"/>
			<circle class="st1" cx="122.9" cy="90" r="5.1"/>
			<path class="st1" d="M119.9,91.2c0,0,0.1,8.5-2.2,10.5c0,0,9.8,0.5,10.2-1.2c0,0-2.2-6.5-2-10.4S119.9,91.2,119.9,91.2z"/>
			<polygon class="st1" points="74.8,93.7 26.7,65.6 74.8,37.5 122.9,65.6 			"/>
		</g>
	</g>
</g>
</svg>
