<?xml version="1.0" encoding="utf-8"?>
<!-- Generator: Adobe Illustrator 22.0.1, SVG Export Plug-In . SVG Version: 6.00 Build 0)  -->
<svg version="1.1" id="Layer_1" xmlns="http://www.w3.org/2000/svg" xmlns:xlink="http://www.w3.org/1999/xlink" x="0px" y="0px"
	 viewBox="0 0 400 400" style="enable-background:new 0 0 400 400;" xml:space="preserve">
<style type="text/css">
	.st0{fill:#00C956;}
	.st1{opacity:0.3;fill:#FFFFFF;enable-background:new    ;}
	.st2{opacity:0.4;fill:#FFFFFF;enable-background:new    ;}
	.st3{opacity:0.4;fill:url(#SVGID_1_);enable-background:new    ;}
	.st4{fill:#FFFFFF;}
</style>
<circle class="st0" cx="201" cy="200" r="193"/>
<circle class="st1" cx="201" cy="200" r="143.8"/>
<circle class="st2" cx="201" cy="200" r="94.3"/>
<linearGradient id="SVGID_1_" gradientUnits="userSpaceOnUse" x1="254.4013" y1="268.0468" x2="328.9043" y2="337.6909">
	<stop  offset="0" style="stop-color:#000000;stop-opacity:0.8"/>
	<stop  offset="0.6363" style="stop-color:#000000;stop-opacity:0"/>
</linearGradient>
<path class="st3" d="M333.4,168.2l-5.2,7.5l-13.6-3.7l3.2,47.8l-24.7,54l-76.8,49l-109.7-21.5l91.8,88.2c72.1-3.6,123.5-40.8,153-85
	c7.5-7.2,23.3-46.9,26.9-57.4c5.1-11.3,8.7-16.6-3.8-31.9l-28.9-34.4"/>
<g>
	<path class="st4" d="M201,337.7C125,337.7,63.2,275.9,63.2,200S125,62.2,201,62.2c8.3,0,16.7,0.8,24.8,2.2
		c8.1,1.5,13.5,9.2,12,17.4c-1.5,8.1-9.3,13.5-17.4,12c-6.4-1.2-12.9-1.8-19.5-1.8c-59.5,0-107.9,48.4-107.9,107.9
		S141.5,307.9,201,307.9c59.5,0,107.9-48.4,107.9-107.9c0-6.8-0.6-13.6-1.9-20.2c-1.5-8.1,3.8-15.9,11.9-17.4
		c8.1-1.5,15.9,3.8,17.4,11.9c1.6,8.4,2.4,17.1,2.4,25.7C338.7,275.9,276.9,337.7,201,337.7z"/>
</g>
<g>
	<path class="st4" d="M195.7,244.8c-3.4,0-6.6-1.1-9.3-3.2l-36.2-28.7c-6.5-5.1-7.5-14.5-2.4-21c5.1-6.5,14.5-7.5,21-2.4l24.5,19.5
		l82.4-103.8c5.1-6.5,14.5-7.5,21-2.4c6.5,5.1,7.5,14.5,2.4,21l-91.7,115.5c-2.5,3.1-6,5.1-10,5.5
		C196.9,244.8,196.3,244.8,195.7,244.8z"/>
</g>
</svg>
