<?xml version="1.0" encoding="utf-8"?>
<!-- Generator: Adobe Illustrator 23.0.2, SVG Export Plug-In . SVG Version: 6.00 Build 0)  -->
<svg version="1.1" id="Layer_1" xmlns="http://www.w3.org/2000/svg" xmlns:xlink="http://www.w3.org/1999/xlink" x="0px" y="0px"
	 viewBox="0 0 148 148" style="enable-background:new 0 0 148 148;" xml:space="preserve">
<style type="text/css">
	.st0{display:none;}
	.st1{display:inline;}
	.st2{fill:#A9F427;}
	.st3{opacity:0.3;fill:#FFFFFF;enable-background:new    ;}
	.st4{opacity:0.4;fill:#FFFFFF;enable-background:new    ;}
	.st5{fill:url(#SVGID_1_);}
	.st6{fill:#FFFFFF;}
	.st7{fill:#F2CA5A;}
	.st8{fill:url(#SVGID_2_);}
	.st9{fill:#F9437C;}
	.st10{fill:url(#SVGID_3_);}
	.st11{fill:#FF94A6;}
	.st12{fill:url(#SVGID_4_);}
	.st13{fill:none;stroke:#FFFFFF;stroke-width:4;stroke-miterlimit:10;}
	.st14{fill:#4C67D8;}
</style>
<g id="Laag_1" class="st0">
	<g class="st1">
		<circle class="st2" cx="74" cy="74" r="69.5"/>
		<circle class="st3" cx="74" cy="74" r="51.8"/>
		<circle class="st4" cx="74" cy="74" r="33.9"/>
		
			<linearGradient id="SVGID_1_" gradientUnits="userSpaceOnUse" x1="117.0238" y1="739.4339" x2="56.5896" y2="674.9931" gradientTransform="matrix(1 0 0 1 0 -620)">
			<stop  offset="0" style="stop-color:#000000;stop-opacity:0"/>
			<stop  offset="1" style="stop-color:#000000;stop-opacity:0.24"/>
		</linearGradient>
		<path class="st5" d="M42.9,93.8l41.8,48.6c0,0,37.5-12.8,56.8-54.3l-14-14.4l0,0l-30-31.3l-9.8-2.3l-9.8-2.6H62.2L48.9,55.4"/>
		<path class="st6" d="M108.4,81.3c0-6.3-1.2-9.9-3.3-11.9v-7c0-17-13.8-30.8-30.8-30.8S43.5,45.4,43.5,62.4v7
			c-2.1,2-3.3,5.5-3.3,11.9c0,14.4,6.5,14.4,14.4,14.4V66.9c-1.6,0-3.1,0-4.5,0.1v-4.5c0-13.4,10.9-24.2,24.2-24.2
			c13.4,0,24.2,10.9,24.2,24.2V67c-1.4-0.1-2.9-0.1-4.5-0.1v28.8c1.6,0,3.1,0,4.6-0.1c-1.6,4.9-5.6,11.2-15.5,11.8
			c-1.3-2.5-4.7-4.4-8.7-4.4c-5.1,0-9.3,3-9.3,6.6s4.1,6.6,9.3,6.6c4.1,0,7.5-1.9,8.8-4.5c14.3-0.8,18.9-11.2,20.3-17.4
			C106.4,92.9,108.4,89.3,108.4,81.3z"/>
	</g>
</g>
<g id="Laag_4" class="st0">
	<g class="st1">
		<circle class="st7" cx="74" cy="73.9" r="69.5"/>
		<circle class="st3" cx="74" cy="73.9" r="51.8"/>
		<circle class="st4" cx="74" cy="73.9" r="33.9"/>
		
			<linearGradient id="SVGID_2_" gradientUnits="userSpaceOnUse" x1="106.6789" y1="729.2785" x2="66.9289" y2="690.5285" gradientTransform="matrix(1 0 0 1 0 -620)">
			<stop  offset="0" style="stop-color:#000000;stop-opacity:0"/>
			<stop  offset="1" style="stop-color:#000000;stop-opacity:0.5"/>
		</linearGradient>
		<polygon class="st8" points="36.4,97.4 73.8,141.7 82.5,140.7 101,136.3 119.8,125 133.2,109.1 141,91.1 143.2,83.7 111.7,49.7 
			109.3,63.6 114,90.9 104,100.9 		"/>
		<path class="st6" d="M104,46.1H44c-5.5,0-10,4.5-10,10v34.8c0,5.5,4.5,10,10,10h43.9l12.6,12l1-12h2.5c5.5,0,10-4.5,10-10V56.1
			C114,50.6,109.6,46.1,104,46.1z M101.9,86.5H46.1v-4h55.8C101.9,82.5,101.9,86.5,101.9,86.5z M101.9,75.5H46.1v-4h55.8
			C101.9,71.5,101.9,75.5,101.9,75.5z M101.9,64.5H46.1v-4h55.8C101.9,60.5,101.9,64.5,101.9,64.5z"/>
	</g>
</g>
<g id="Laag_5" class="st0">
	<g class="st1">
		<circle class="st9" cx="74" cy="74.1" r="69.5"/>
		<circle class="st3" cx="74" cy="74.1" r="51.8"/>
		<circle class="st4" cx="74" cy="74.1" r="33.9"/>
		
			<linearGradient id="SVGID_3_" gradientUnits="userSpaceOnUse" x1="128.8248" y1="721.1616" x2="75.0391" y2="670.5398" gradientTransform="matrix(1 0 0 1 0 -620)">
			<stop  offset="0" style="stop-color:#000000;stop-opacity:0"/>
			<stop  offset="1" style="stop-color:#000000;stop-opacity:0.24"/>
		</linearGradient>
		<path class="st10" d="M67,81.2l5.5-12.6l5.6-46.3l65.4,51.8c0,0-9.6,41-31.5,52.1L67,81.2z"/>
		<path class="st6" d="M100.8,95.1L83.5,77.8c0.4-1.1,0.7-2.4,0.7-3.6c0-4.1-2.5-7.6-6-9.2V22.4c0-2.2-1.8-4-4-4s-4,1.8-4,4V65
			c-3.5,1.5-6,5.1-6,9.2c0,5.5,4.5,10,10,10c1.3,0,2.5-0.3,3.6-0.7l17.3,17.2c0.8,0.8,1.8,1.2,2.8,1.2s2-0.4,2.8-1.2
			C102.3,99.2,102.3,96.7,100.8,95.1z"/>
	</g>
</g>
<g id="Laag_3" class="st0">
	<g class="st1">
		<circle class="st11" cx="74" cy="73.9" r="69.5"/>
		<circle class="st3" cx="74" cy="73.9" r="51.8"/>
		<circle class="st4" cx="74" cy="73.9" r="33.9"/>
		
			<linearGradient id="SVGID_4_" gradientUnits="userSpaceOnUse" x1="114.2168" y1="-190.611" x2="51.8816" y2="-120.325" gradientTransform="matrix(1 0 0 -1 0 -80.5666)">
			<stop  offset="0" style="stop-color:#000000;stop-opacity:0"/>
			<stop  offset="1" style="stop-color:#000000;stop-opacity:0.5"/>
		</linearGradient>
		<polygon class="st12" points="26.7,65.6 90.4,131.4 99.2,137 99.2,137 118,125.7 131.4,109.8 139.2,91.8 138.4,84.4 122.9,65.6 
			55.8,61.7 68.1,74 76,82 		"/>
		<g>
			<path class="st13" d="M110.8,65.6c0,0,12.8,14,12.1,20.7"/>
			<circle class="st6" cx="122.9" cy="90" r="5.1"/>
			<path class="st6" d="M119.9,91.2c0,0,0.1,8.5-2.2,10.5c0,0,9.8,0.5,10.2-1.2c0,0-2.2-6.5-2-10.4S119.9,91.2,119.9,91.2z"/>
			<polygon class="st6" points="74.8,93.7 26.7,65.6 74.8,37.5 122.9,65.6 			"/>
		</g>
	</g>
</g>
<g id="Laag_2">
	<g>
		<circle class="st14" cx="74" cy="74" r="69.5"/>
		<g>
			<path class="st6" d="M21.8,72.1L48,58.4c1.4-0.7,3,0.3,3,1.8v4.6c0,0.6-0.1,1.1-0.4,1.6s-0.8,0.9-1.4,1.3l-10.6,5.7
				c-0.6,0.4-1.3,0.6-2,0.9c0,0-0.1,0-0.1,0c-0.7,0.2-1.5,0.5-2.2,0.7c0.8,0.2,1.6,0.4,2.3,0.6c0.7,0.2,1.3,0.5,2,0.8
				c0.1,0,0.1,0.1,0.2,0.1l10.4,5.7c0.6,0.4,1.1,0.8,1.4,1.2c0.3,0.5,0.4,1,0.4,1.6v4.6c0,1.5-1.6,2.5-3,1.8L21.8,77.8
				c-0.7-0.4-1.1-1-1.1-1.8v-2C20.7,73.2,21.1,72.5,21.8,72.1z"/>
			<path class="st6" d="M69.2,99.7c-0.3,0.7-0.6,1.3-1.1,1.8c-0.4,0.5-0.9,1-1.5,1.3c-0.5,0.3-1.1,0.6-1.7,0.8
				c-0.6,0.2-1.2,0.3-1.8,0.3h-1.7c-1.5,0-2.6-1.5-2-3l20.2-52.8c0.5-1.3,1.3-2.2,2.3-2.9s2.2-1,3.6-1h1.7c1.5,0,2.6,1.5,2,3
				L69.2,99.7z"/>
			<path class="st6" d="M126.7,77.7l-26.6,13.9c-1.2,0.6-2.7-0.2-2.7-1.6v-5c0-0.6,0.2-1.1,0.5-1.6s0.8-0.9,1.4-1.2l10.6-5.8
				c0.6-0.4,1.3-0.6,2-0.8c0.7-0.2,1.5-0.4,2.3-0.6c-0.8-0.2-1.6-0.4-2.3-0.7c-0.7-0.2-1.4-0.5-2-0.9l-10.6-5.7
				c-0.6-0.3-1.1-0.8-1.4-1.3s-0.5-1-0.5-1.6v-5c0-1.4,1.5-2.3,2.7-1.6l26.6,14c0.6,0.3,1,0.9,1,1.6c0,0.7,0,1.6,0,2.3
				C127.7,76.8,127.3,77.4,126.7,77.7z"/>
		</g>
	</g>
</g>
</svg>
