<svg xmlns="http://www.w3.org/2000/svg" viewBox="0 0 164.51 164.53"><defs><style>.cls-1{fill:#0071ce;}.cls-2{fill:#414141;}.cls-3,.cls-9{fill:none;}.cls-3,.cls-4,.cls-5,.cls-7,.cls-8,.cls-9{stroke:#414141;stroke-linecap:round;stroke-linejoin:round;}.cls-3,.cls-4,.cls-5,.cls-7{stroke-width:3.02px;}.cls-4{fill:#66aad1;}.cls-5,.cls-8{fill:#fff;}.cls-6{fill:#f2ae3e;}.cls-7{fill:#f3cf99;}.cls-8,.cls-9{stroke-width:3px;}</style></defs><g id="Layer_2" data-name="Layer 2"><g id="Layer_1-2" data-name="Layer 1"><circle class="cls-1" cx="82.39" cy="82.42" r="80.61"/><path class="cls-2" d="M82.39,3.32a79.1,79.1,0,1,1-79.1,79.1,79.18,79.18,0,0,1,79.1-79.1m0-3a82.12,82.12,0,1,0,82.12,82.12A82.11,82.11,0,0,0,82.39.3Z"/><line class="cls-3" x1="82.38" y1="57.6" x2="82.38" y2="64.69"/><line class="cls-3" x1="108.99" y1="110.78" x2="108.99" y2="110.78"/><line class="cls-3" x1="94.81" y1="57.6" x2="94.81" y2="57.6"/><line class="cls-3" x1="69.99" y1="57.6" x2="69.99" y2="57.6"/><line class="cls-3" x1="62.9" y1="57.6" x2="62.9" y2="57.6"/><line class="cls-3" x1="55.81" y1="57.6" x2="55.81" y2="57.6"/><line class="cls-3" x1="69.99" y1="50.51" x2="69.99" y2="50.51"/><line class="cls-3" x1="66.45" y1="82.42" x2="59.36" y2="82.42"/><line class="cls-3" x1="82.38" y1="130.28" x2="82.38" y2="116.12"/><polyline class="cls-3" points="76.87 121.63 82.38 116.12 87.89 121.63"/><line class="cls-3" x1="82.38" y1="34.56" x2="82.38" y2="48.72"/><polyline class="cls-3" points="87.89 43.21 82.38 48.72 76.87 43.21"/><line class="cls-3" x1="34.52" y1="82.42" x2="48.68" y2="82.42"/><polyline class="cls-3" points="43.17 76.91 48.68 82.42 43.17 87.93"/><circle class="cls-4" cx="82.38" cy="82.42" r="58.5" transform="translate(-34.15 82.39) rotate(-45)"/><path class="cls-3" d="M66.43,127.55A47.87,47.87,0,0,1,34.52,82.42"/><line class="cls-3" x1="130.24" y1="82.42" x2="116.08" y2="82.42"/><polyline class="cls-3" points="121.59 87.93 116.08 82.42 121.59 76.91"/><path class="cls-3" d="M98.34,37.28a47.89,47.89,0,0,1,31.9,45.14"/><path class="cls-3" d="M127.52,98.37a47.88,47.88,0,0,1-45.14,31.91"/><path class="cls-3" d="M37.24,66.46a47.87,47.87,0,0,1,45.14-31.9"/><rect class="cls-5" x="78.84" y="78.87" width="7.09" height="7.09"/><rect class="cls-5" x="91.26" y="78.87" width="7.09" height="7.09"/><rect class="cls-5" x="66.45" y="78.87" width="7.09" height="7.09"/><rect class="cls-5" x="78.84" y="93.05" width="7.09" height="7.09"/><rect class="cls-5" x="91.26" y="93.05" width="7.09" height="7.09"/><rect class="cls-5" x="66.45" y="93.05" width="7.09" height="7.09"/><rect class="cls-5" x="78.84" y="64.69" width="7.09" height="7.09"/><rect class="cls-5" x="91.26" y="64.69" width="7.09" height="7.09"/><rect class="cls-5" x="66.45" y="64.69" width="7.09" height="7.09"/><line class="cls-3" x1="112.54" y1="68.24" x2="112.54" y2="68.24"/><line class="cls-3" x1="119.63" y1="68.24" x2="119.63" y2="68.24"/><line class="cls-3" x1="112.54" y1="61.14" x2="112.54" y2="61.14"/><line class="cls-3" x1="69.99" y1="114.32" x2="69.99" y2="114.32"/><line class="cls-3" x1="62.9" y1="114.32" x2="62.9" y2="114.32"/><polyline class="cls-3" points="98.35 82.42 105.44 82.42 105.44 96.6 98.35 96.6"/><line class="cls-3" x1="98.35" y1="68.24" x2="105.44" y2="68.24"/><line class="cls-3" x1="105.44" y1="89.51" x2="108.99" y2="89.51"/><line class="cls-3" x1="69.99" y1="100.14" x2="69.99" y2="107.23"/><polyline class="cls-3" points="94.81 100.14 94.81 110.78 101.9 110.78"/><polyline class="cls-3" points="65.12 68.23 58.23 68.23 58.23 96.6 65.12 96.6"/><circle class="cls-6" cx="82.12" cy="82.12" r="82.12"/><polyline class="cls-3" points="106.69 53.73 81.87 53.73 58.29 53.73 58.29 67.38"/><rect class="cls-5" x="103.14" y="62.62" width="7.09" height="7.09" transform="translate(172.85 -40.52) rotate(90)"/><rect class="cls-5" x="80.42" y="50.19" width="7.09" height="7.09" transform="translate(167.93 107.47) rotate(-180)"/><rect class="cls-5" x="62.51" y="21.67" width="15.48" height="15.48" transform="translate(99.66 -40.83) rotate(90)"/><polyline class="cls-3" points="111.01 66.16 142.05 66.16 142.05 80.25"/><polyline class="cls-3" points="106.69 62.62 106.69 39.8 106.69 29.41 77.99 29.41"/><rect class="cls-5" x="138.5" y="80.36" width="7.09" height="7.09" transform="translate(225.95 -58.14) rotate(90)"/><path class="cls-7" d="M110.23,112.1,101.4,94.2,84,90.68l-.16-4.32-4.18.92L76.54,76h2.77l-1.85-7L70,69.37a4,4,0,0,0-3.82-2.79H46.55a4,4,0,0,0-3.93,3.28L38.43,92.28,24.19,96v8H21.63v11.68h5.76l.22-.1a13.43,13.43,0,0,0,25.62,1.91l21.33.29H75a14.91,14.91,0,0,0,.7,2.11L79.27,118a11.4,11.4,0,0,0,10.62,7.27c5.27,0,10.67-1.89,12-6.73v-8.23l7.2,6.93,14.5-.8h10.73a11.63,11.63,0,0,0,10.19-6l1.8.49L121,93.54,115.46,103a5.63,5.63,0,0,0-.16,4l1.6,5"/><path class="cls-8" d="M49.71,71.64H65.15a2.09,2.09,0,0,1,2,1.47l5.31,17.41v11.2H65l-3.18-8.64H44.13l3.53-19.73A2.08,2.08,0,0,1,49.71,71.64Z"/><circle class="cls-8" cx="90.47" cy="114.66" r="6.24"/><path class="cls-9" d="M99.24,102A15.39,15.39,0,0,0,76.3,120.65"/><circle class="cls-9" cx="90.47" cy="114.66" r="11.41"/><circle class="cls-8" cx="41.29" cy="113.37" r="7.35"/><circle class="cls-9" cx="41.29" cy="113.37" r="13.44"/><line class="cls-9" x1="53.85" y1="118.54" x2="75.14" y2="118.54"/><polyline class="cls-9" points="73.09 95 80.28 95 80.28 86.36 83.81 86.36 83.81 95 88.92 96.28"/><polyline class="cls-9" points="83.97 90.68 101.41 94.2 111.64 112.76 117.48 112.76"/><polyline class="cls-9" points="124.16 117.24 109.08 117.24 100.22 108.71"/><line class="cls-9" x1="53.77" y1="71.7" x2="53.77" y2="92.34"/><path class="cls-9" d="M122.16,90.78l-6.12,13a5.66,5.66,0,0,0-.16,4l3.16,9.49h15.85a11.65,11.65,0,0,0,10.19-6l1.8-3.26"/><line class="cls-9" x1="145.12" y1="110.04" x2="121.02" y2="93.54"/><line class="cls-9" x1="124.15" y1="101.93" x2="122.86" y2="101.04"/><line class="cls-9" x1="130.39" y1="106.2" x2="127.01" y2="103.89"/><path class="cls-9" d="M76.57,94.5V88.74L70.62,70.17a4,4,0,0,0-3.82-2.79H47.13a4,4,0,0,0-3.93,3.27L39,93.08,24.77,96.76v8H22.21v11.68H28"/><line class="cls-9" x1="70.09" y1="108.58" x2="65.13" y2="108.58"/><line class="cls-9" x1="70.09" y1="112.74" x2="65.13" y2="112.74"/><polyline class="cls-9" points="70.25 69 77.46 69 79.31 75.98 76.54 75.98"/><line class="cls-9" x1="75.18" y1="72.75" x2="77.25" y2="79.66"/><polygon class="cls-7" points="105.64 57.6 103.11 60.56 95.45 63.95 94.08 71.9 96.05 73.94 108.99 77.69 117.94 77.69 127.52 75.4 131 71.78 130.87 65.74 128.27 62.2 122.86 61.08 120.13 58.16 117.11 58.16 113.9 60.56 111.37 60.89 105.64 57.6"/><path class="cls-7" d="M121.17,43.2a11.2,11.2,0,0,0,.51-3.36c0-5.57-4-9.74-9-9.74s-9,4.17-9,9.74a11.2,11.2,0,0,0,.51,3.36,2.63,2.63,0,0,0,.7,4.69c1.28,3.83,4.27,6.52,7.75,6.52s6.47-2.69,7.75-6.52a2.63,2.63,0,0,0,.7-4.69Z"/><path class="cls-3" d="M121.17,43.2a11.2,11.2,0,0,0,.51-3.36c0-5.57-4-9.74-9-9.74s-9,4.17-9,9.74a11.2,11.2,0,0,0,.51,3.36,2.63,2.63,0,0,0,.7,4.69c1.28,3.83,4.27,6.52,7.75,6.52s6.47-2.69,7.75-6.52a2.63,2.63,0,0,0,.7-4.69Z"/><polyline class="cls-3" points="112.63 61.97 116.46 66.27 121.59 60.67 119.39 56.9"/><line class="cls-3" x1="112.63" y1="61.97" x2="119.39" y2="56.9"/><path class="cls-3" d="M121.59,60.67,128.8,63a4.2,4.2,0,0,1,2.2,4V73.1"/><polyline class="cls-3" points="112.8 61.97 108.98 66.27 103.84 60.67 106.05 56.9"/><line class="cls-3" x1="106.05" y1="56.9" x2="112.8" y2="61.97"/><path class="cls-3" d="M103.84,60.67,96.64,63a4.2,4.2,0,0,0-2.2,4V73.1"/><path class="cls-3" d="M131,73.1a38.7,38.7,0,0,1-36.56,0"/></g></g></svg>